<svg width="120" height="44" viewBox="0 0 120 44" fill="none" xmlns="http://www.w3.org/2000/svg">
<path fill-rule="evenodd" clip-rule="evenodd" d="M22.1408 0.803877C22.6555 0.511389 23.1681 0.195406 23.7381 0.0291661C24.1662 -0.0826287 24.6489 0.134691 24.8262 0.548609C25.5045 2.7748 26.2115 4.99275 26.913 7.21136C27.1741 8.20068 27.5293 9.16169 27.8075 10.1461C28.057 10.9802 28.2881 11.8211 28.4769 12.6717C27.7413 11.3969 26.4556 10.5379 25.0873 10.0964C23.3325 9.5273 21.4386 9.53146 19.6455 9.90948C18.3345 10.1792 17.0597 10.6042 15.8148 11.0953C13.8316 11.9467 11.9315 13.2299 10.791 15.1229C10.2135 16.1066 9.81063 17.2083 9.71652 18.3542C9.55635 20.1375 9.97694 21.9105 10.5462 23.5862C12.8723 23.1378 15.0451 22.1243 17.3488 21.5848C17.1572 20.3465 16.6145 19.1261 16.8333 17.852C16.922 17.2697 17.2465 16.753 17.6978 16.388C18.5684 15.6471 19.743 15.3436 20.8659 15.4119C21.7256 15.4436 22.4898 16.028 22.9071 16.7661C23.2998 17.4215 23.3829 18.2252 23.2302 18.9682C23.0005 20.1189 22.2833 21.0771 21.6137 22.005C19.9373 24.2181 18.2377 26.4126 16.5633 28.6271C15.81 29.6494 15.0976 30.7229 14.6504 31.9226C14.2679 32.9112 14.1363 33.9881 14.229 35.0436C14.36 36.702 14.9224 38.2776 15.3969 39.8581C21.5811 37.8458 27.7836 35.8928 33.9705 33.8901C34.37 33.7735 34.7763 33.681 35.1717 33.5506C35.6817 35.1505 36.1767 36.7551 36.6819 38.357C36.8755 39.0221 37.1359 39.6712 37.2449 40.3583C37.2436 40.6246 37.0643 40.8605 36.8591 41.013C36.5919 41.2034 36.266 41.2876 35.9489 41.3421C27.7522 42.1955 19.5549 43.0337 11.3609 43.9029C10.8925 43.947 10.4221 44.0326 9.95104 43.987C9.62522 43.9553 9.30747 43.7532 9.18069 43.4413C8.69801 41.9257 8.20171 40.4149 7.72718 38.8972C7.58814 38.4653 7.46944 38.0273 7.3004 37.6064C5.9185 33.1912 4.53249 28.7775 3.14987 24.3629C3.04422 23.8925 2.87517 23.4399 2.7388 22.9784C2.10887 20.9723 1.48095 18.9654 0.851076 16.9593C0.553096 16.1784 0.357443 15.3602 0.0636368 14.5771C-0.0672553 14.0949 -0.0174944 13.4865 0.414704 13.1726C7.64605 9.03267 14.9053 4.93758 22.1408 0.803877ZM28.976 22.6266C29.7709 21.3365 30.2243 19.8574 30.4268 18.357C31.2523 21.3924 32.2873 24.3629 33.1879 27.3749C29.4907 28.6498 25.7581 29.8178 22.0208 30.9664C24.4219 28.2628 27.1039 25.7614 28.976 22.6266Z" fill="#A4BC0C"/>
<path fill-rule="evenodd" clip-rule="evenodd" d="M98.265 1.74964C100.276 1.77729 102.287 1.7635 104.299 1.76C104.287 7.1969 104.277 12.6338 104.298 18.0706C106.787 15.385 109.333 12.7545 111.874 10.1192C114.263 10.1095 116.653 10.1192 119.042 10.1275C116.303 12.8856 113.467 15.543 110.739 18.3128C113.921 22.8963 116.912 27.6116 120 32.2606C117.583 32.2675 115.166 32.2275 112.751 32.2875C110.575 29.0734 108.699 25.6675 106.614 22.3941C105.788 23.1336 104.95 23.8745 104.285 24.7714C104.279 27.2694 104.302 29.7674 104.268 32.2655C102.268 32.2509 100.268 32.2565 98.2685 32.2606C98.261 26.6278 98.2528 20.9957 98.2725 15.3636C96.8416 15.2084 95.3512 15.0511 93.9557 15.5078C92.8642 15.8603 91.92 16.6315 91.3248 17.6201C90.6042 18.8067 90.3002 20.2134 90.2797 21.5952C90.2572 25.1501 90.2866 28.7057 90.2572 32.2606C88.2801 32.2682 86.303 32.222 84.3267 32.2868C84.2278 30.2655 84.2851 28.2387 84.1378 26.2194C82.9522 29.1852 80.3404 31.5707 77.2412 32.2951C74.5361 32.9332 71.6188 32.9546 68.9975 31.9447C67.8488 31.4948 66.7545 30.874 65.8423 30.0302C63.6021 27.9792 62.3579 24.9121 62.3804 21.8698C62.3709 20.648 62.4786 19.4242 62.3818 18.2038C61.248 22.9777 59.6105 27.6054 58.1099 32.2689C56.0872 32.2454 54.0651 32.2523 52.0423 32.2647C50.67 27.3398 49.3215 22.4051 48.1639 17.4229C47.5039 19.0061 47.2006 20.7053 46.7813 22.3623C45.9304 25.6578 45.1307 28.9665 44.2738 32.2599C42.2128 32.2503 40.1519 32.2565 38.091 32.2641C35.7076 24.9011 33.4149 17.5084 31.0833 10.1288C33.2096 10.1109 35.3367 10.1364 37.4631 10.1109C38.7509 15.1277 40.3292 20.0706 41.3668 25.1508C41.8604 24.0111 42.0963 22.7838 42.4085 21.5862C43.3821 17.7643 44.1947 13.9011 45.2521 10.1013C47.2053 10.1254 49.1585 10.1185 51.1124 10.1199C52.2237 15.1139 53.7004 20.0195 54.693 25.0411C56.3408 20.1409 57.4268 15.0745 58.8919 10.1192C60.9535 10.1137 63.0152 10.1254 65.0774 10.1116C64.5879 11.9646 63.9198 13.7611 63.3423 15.5865C64.2654 13.9549 65.451 12.4323 66.9979 11.3644C67.8678 10.7553 68.8618 10.3565 69.8708 10.0495C72.5726 9.24511 75.5375 9.29064 78.1821 10.2951C79.2537 10.7001 80.26 11.2761 81.1701 11.9756C82.4634 13.0112 83.3859 14.4475 84.0492 15.9589C84.1222 15.4712 84.2176 14.9821 84.1951 14.4861C84.206 13.0422 84.1828 11.599 84.1419 10.1558C86.076 10.0847 88.0116 10.1226 89.947 10.1337C89.9593 11.4638 89.9327 12.7945 89.9913 14.1239C90.9124 12.1192 92.6938 10.5531 94.769 9.87634C95.8974 9.50315 97.1156 9.40653 98.2855 9.61626C98.2432 6.9941 98.2637 4.37187 98.265 1.74964ZM73.4384 14.0791C72.7314 14.1846 71.9992 14.2667 71.3557 14.6054C70.631 15.007 70.0085 15.5927 69.5572 16.2929C68.9232 17.2731 68.5857 18.428 68.4773 19.5884C68.3423 21.3185 68.3437 23.1102 68.9279 24.7645C69.292 25.7627 69.864 26.7306 70.7448 27.3439C72.726 28.7429 75.7032 28.4532 77.3585 26.6623C77.9073 26.0759 78.225 25.3184 78.4766 24.563C79.1208 22.5858 79.1269 20.4286 78.6524 18.4128C78.4922 17.7768 78.328 17.1303 77.9953 16.5605C77.3987 15.514 76.3945 14.7358 75.2723 14.3446C74.6847 14.1564 74.0574 13.9935 73.4384 14.0791Z" fill="#060709"/>
</svg>
