<svg width="130" height="88" viewBox="0 0 130 88" fill="none" xmlns="http://www.w3.org/2000/svg">
<path fill-rule="evenodd" clip-rule="evenodd" d="M84.8265 45.3211C85.987 44.7672 87.1472 44.2006 88.0967 43.6678C105.083 34.2536 120.804 19.5061 129.666 2.21594C129.983 1.58607 129.772 0.810608 129.139 0.486702C128.506 0.162804 127.766 0.411804 127.45 1.04272C118.693 17.8929 103.395 32.2469 86.8304 41.4227C86.3029 41.7265 85.6697 42.042 85.0367 42.3617C84.9312 40.7949 84.4038 39.5046 83.6653 38.4643C82.5047 36.9218 80.7114 35.8742 78.6013 35.2928C75.6471 34.4899 72.1659 34.5785 69.0007 35.3129C66.5741 35.9016 64.3583 36.9081 62.9867 38.1499C61.8262 39.1511 61.1933 40.3201 61.0878 41.5524C60.9823 42.8501 61.5092 44.2913 63.0918 45.7389C65.7294 48.2509 69.3172 48.9969 73.2209 48.6782C76.0696 48.4419 79.0233 47.6169 81.7664 46.5914C81.4499 47.4481 81.0277 48.3733 80.5001 49.3714C76.2799 56.8696 66.1521 63.9343 54.23 69.7898C36.0831 78.6818 13.7159 84.7082 1.26628 84.7683C0.633255 84.7715 1.52588e-05 85.3497 1.52588e-05 86.0587C1.52588e-05 86.7677 0.633255 87.3406 1.26628 87.3374C14.0324 87.2762 36.8213 81.1738 55.3902 72.0961C67.8397 65.9716 78.3907 58.4607 82.7164 50.6164C83.7714 48.6434 84.51 46.8836 84.8265 45.3211ZM82.5052 43.5349C82.6107 42.0905 82.2943 40.9268 81.6613 40.0068C80.8173 38.8937 79.4457 38.1889 77.9686 37.7701C75.4365 37.0737 72.3765 37.1761 69.6333 37.8133C67.7342 38.2702 65.9411 38.9982 64.7805 39.9445C64.1475 40.4794 63.7248 41.0608 63.6193 41.7318C63.6193 42.4165 64.042 43.1129 64.7805 43.8767C66.9961 45.8897 69.9501 46.373 73.0097 46.1176C76.1749 45.8518 79.6565 44.7735 82.5052 43.5349Z" fill="#E0E0E0"/>
<path fill-rule="evenodd" clip-rule="evenodd" d="M127.479 1.16525C124.842 8.09587 124.313 16.2282 125.263 23.5608C125.368 24.2645 126.001 24.7646 126.634 24.676C127.373 24.5884 127.901 23.9459 127.796 23.2432C126.951 16.3147 127.374 8.62866 129.906 2.07996C130.117 1.41739 129.8 0.674644 129.167 0.421432C128.428 0.169275 127.69 0.502672 127.479 1.16525Z" fill="#E0E0E0"/>
<path fill-rule="evenodd" clip-rule="evenodd" d="M127.516 0.797749C122.979 6.27135 115.277 8.50911 108.419 9.36793C107.786 9.45655 107.258 10.1001 107.364 10.8038C107.469 11.5065 108.103 12.0056 108.841 11.9169C116.227 10.98 124.561 8.39729 129.52 2.42675C129.942 1.87813 129.836 1.06889 129.309 0.619438C128.781 0.168931 127.938 0.250177 127.516 0.797749Z" fill="#E0E0E0"/>
</svg>
