<svg width="130" height="45" viewBox="0 0 130 45" fill="none" xmlns="http://www.w3.org/2000/svg">
<path fill-rule="evenodd" clip-rule="evenodd" d="M54.1268 17.3436C54.6899 17.4521 55.252 17.6691 55.813 17.8861C58.8414 18.8627 62.3734 19.948 64.9808 21.9011C68.3998 24.5053 69.7214 27.4348 69.6921 30.3645C69.6477 34.4877 66.6062 38.7191 62.4384 41.3233C58.3087 43.9274 53.1372 45.0129 48.9716 43.3853C46.1168 42.3003 43.6808 39.9131 42.3527 35.7898C40.8206 31.124 42.0738 26.6752 44.7746 22.769C45.788 21.2499 47.0076 19.948 48.3509 18.6459C46.5834 18.3204 44.7984 17.9944 42.9885 17.6689C37.063 16.8009 30.8346 16.5836 24.8613 16.9092C16.9598 17.2347 9.40119 18.8629 2.09866 21.9011C1.42374 22.1181 0.651176 21.7924 0.373398 21.1414C0.0967026 20.4903 0.417908 19.7312 1.09283 19.4057C8.6829 16.259 16.5388 14.522 24.7506 14.1965C30.8976 13.9795 37.306 14.0888 43.4041 15.0654C45.9302 15.4994 48.4096 15.9332 50.8607 16.4758C54.0769 13.9801 57.65 12.0268 60.6882 10.8332C81.0127 3.23767 108.381 13.1114 126.798 22.877C127.443 23.2026 127.688 23.9628 127.347 24.6138C127.006 25.2648 126.206 25.4819 125.561 25.1563C107.736 15.7162 81.2927 5.95014 61.6214 13.3286C59.308 14.1967 56.6528 15.6075 54.1268 17.3436ZM51.4966 19.4057C52.6576 19.6227 53.811 19.9476 54.9612 20.3816C57.7368 21.3582 60.9985 22.226 63.3868 23.9621C65.9682 25.9152 67.0717 28.0862 67.05 30.2564C67.0142 33.7286 64.3992 36.9834 61.0279 39.045C57.6196 41.2152 53.3727 42.3005 49.9341 40.8899C47.7205 40.0218 45.8944 38.1768 44.8646 35.0301C43.6027 31.1238 44.7225 27.4352 46.9479 24.2885C48.186 22.4439 49.7637 20.8163 51.4966 19.4057Z" fill="#E0E0E0"/>
<path fill-rule="evenodd" clip-rule="evenodd" d="M126.999 24.1774C126.616 23.6349 126.043 23.0923 125.469 22.5498C124.366 21.4647 123.196 20.4879 122.58 19.6199C118.784 14.4115 114.298 8.11834 112.308 1.93343C112.083 1.28238 112.464 0.522831 113.158 0.305817C113.852 0.0888023 114.597 0.414112 114.822 1.17366C116.731 7.03305 121.077 13.0016 124.72 18.1014C125.386 18.9695 126.797 20.1624 127.927 21.2475C128.886 22.2241 129.651 23.2008 129.929 24.1774C130.124 24.7199 129.907 25.6965 128.686 26.3475C126.954 27.2156 122.145 27.9758 121.679 28.0843C116.964 29.1694 112.814 30.2542 109.837 34.3775C109.408 34.92 108.58 35.0283 107.991 34.7028C107.402 34.2688 107.272 33.4005 107.701 32.858C111.096 28.1922 115.743 26.6733 121.118 25.4797C121.461 25.4797 124.336 25.0457 126.333 24.3946C126.549 24.2861 126.787 24.2859 126.999 24.1774Z" fill="#E0E0E0"/>
</svg>
