<svg width="103" height="104" viewBox="0 0 103 104" fill="none" xmlns="http://www.w3.org/2000/svg">
<path fill-rule="evenodd" clip-rule="evenodd" d="M24.7434 14.2234C23.795 15.5172 21.7426 19.9134 20.7535 22.1475L20.9103 22.2136L9.03673 50.6706C4.07128 62.5711 8.43298 73.1351 20.1357 78.0706L49.0418 90.2613C60.8553 95.2434 71.2714 91.0889 76.2038 79.2674L88.2623 50.3671L88.1012 50.2992C89.0132 47.9616 90.6212 43.5922 90.8559 42.0902C92.4338 33.3165 88.5024 25.5671 80.2929 21.199L46.9781 7.15661C38.0662 4.26278 29.8975 6.87131 24.7434 14.2234Z" fill="url(#paint0_linear_237_4007)"/>
<g opacity="0.5" filter="url(#filter0_f_237_4007)">
<path d="M65.2051 27.8346L46.6494 20.3154C39.9188 17.588 34.2404 20.3765 31.2255 27.8757L21.0141 53.2743C17.9497 60.8964 20.1485 66.7626 26.8791 69.49L45.4348 77.0092C52.2739 79.7806 57.802 77.0455 60.8664 69.4235L71.0778 44.0248C74.0927 36.5257 72.0442 30.606 65.2051 27.8346Z" fill="#EB6F0A"/>
</g>
<g filter="url(#filter1_b_237_4007)">
<mask id="path-3-outside-1_237_4007" maskUnits="userSpaceOnUse" x="28" y="26" width="75" height="78" fill="black">
<rect fill="white" x="28" y="26" width="75" height="78"/>
<path fill-rule="evenodd" clip-rule="evenodd" d="M29.6293 42.1483C29.2525 43.7089 29.0521 48.5571 29 51V82.0662C29 94.9611 37.0933 103 49.7942 103H81.1657C93.9868 103 102 95.1243 102 82.3151V51C101.948 48.553 101.747 43.6672 101.375 42.1483C99.4508 33.4505 92.8374 27.8365 83.5787 27H47.4254C38.0864 27.7949 31.5532 33.3714 29.6293 42.1483ZM46 68.6288C46.0848 70.5633 47.6962 72.0848 49.6467 71.9963C51.5549 71.9162 53.0814 70.3147 52.9966 68.3717C52.9542 66.4793 51.3853 65 49.4771 65C47.5265 65.0885 46 66.6901 46 68.6288ZM62 68.6288C62.0848 70.5633 63.6962 72.0848 65.6467 71.9963C67.5549 71.9162 69.0814 70.3147 68.9966 68.3717C68.9542 66.4793 67.3853 65 65.4771 65C63.5265 65.0885 62 66.6901 62 68.6288ZM79.0008 83.4979C79.0008 85.3932 80.5423 86.9588 82.4588 87C84.4169 87 86 85.4344 86 83.4979C86 81.5656 84.4169 80 82.4588 80H82.4171C80.5006 80.0412 78.9592 81.6027 79.0008 83.4979ZM65.6467 86.9963C63.6962 87.0848 62.0848 85.5633 62 83.6246C62 81.6859 63.5265 80.0885 65.4771 80C67.3853 80 68.9542 81.4793 68.9966 83.3759C69.0814 85.3147 67.5549 86.9162 65.6467 86.9963ZM49.6467 86.9963C47.6962 87.0848 46.0848 85.5633 46 83.6246C46 81.6859 47.5265 80.0885 49.4771 80C51.3853 80 52.9542 81.4793 52.9966 83.3759C53.0814 85.3147 51.5549 86.9162 49.6467 86.9963ZM82.4784 65C80.5271 65.0424 79 66.6129 79 68.5653V68.6078C79.0424 70.556 80.6543 72.0416 82.6056 71.9991C84.5145 71.9609 86.0416 70.348 85.9991 68.3956C85.9143 66.5238 84.3872 65 82.4784 65Z"/>
</mask>
<path fill-rule="evenodd" clip-rule="evenodd" d="M29.6293 42.1483C29.2525 43.7089 29.0521 48.5571 29 51V82.0662C29 94.9611 37.0933 103 49.7942 103H81.1657C93.9868 103 102 95.1243 102 82.3151V51C101.948 48.553 101.747 43.6672 101.375 42.1483C99.4508 33.4505 92.8374 27.8365 83.5787 27H47.4254C38.0864 27.7949 31.5532 33.3714 29.6293 42.1483ZM46 68.6288C46.0848 70.5633 47.6962 72.0848 49.6467 71.9963C51.5549 71.9162 53.0814 70.3147 52.9966 68.3717C52.9542 66.4793 51.3853 65 49.4771 65C47.5265 65.0885 46 66.6901 46 68.6288ZM62 68.6288C62.0848 70.5633 63.6962 72.0848 65.6467 71.9963C67.5549 71.9162 69.0814 70.3147 68.9966 68.3717C68.9542 66.4793 67.3853 65 65.4771 65C63.5265 65.0885 62 66.6901 62 68.6288ZM79.0008 83.4979C79.0008 85.3932 80.5423 86.9588 82.4588 87C84.4169 87 86 85.4344 86 83.4979C86 81.5656 84.4169 80 82.4588 80H82.4171C80.5006 80.0412 78.9592 81.6027 79.0008 83.4979ZM65.6467 86.9963C63.6962 87.0848 62.0848 85.5633 62 83.6246C62 81.6859 63.5265 80.0885 65.4771 80C67.3853 80 68.9542 81.4793 68.9966 83.3759C69.0814 85.3147 67.5549 86.9162 65.6467 86.9963ZM49.6467 86.9963C47.6962 87.0848 46.0848 85.5633 46 83.6246C46 81.6859 47.5265 80.0885 49.4771 80C51.3853 80 52.9542 81.4793 52.9966 83.3759C53.0814 85.3147 51.5549 86.9162 49.6467 86.9963ZM82.4784 65C80.5271 65.0424 79 66.6129 79 68.5653V68.6078C79.0424 70.556 80.6543 72.0416 82.6056 71.9991C84.5145 71.9609 86.0416 70.348 85.9991 68.3956C85.9143 66.5238 84.3872 65 82.4784 65Z" fill="#FFCBB9" fill-opacity="0.35"/>
<path d="M29 51L28.0002 50.9787C28.0001 50.9858 28 50.9929 28 51H29ZM29.6293 42.1483L30.6013 42.3829C30.603 42.3761 30.6046 42.3692 30.6061 42.3624L29.6293 42.1483ZM102 51H103C103 50.9929 103 50.9858 103 50.9787L102 51ZM101.375 42.1483L100.398 42.3642C100.4 42.3717 100.402 42.3792 100.404 42.3866L101.375 42.1483ZM83.5787 27L83.6686 26.0041C83.6387 26.0014 83.6087 26 83.5787 26V27ZM47.4254 27V26C47.3971 26 47.3688 26.0012 47.3406 26.0036L47.4254 27ZM49.6467 71.9963L49.6048 70.9972L49.6014 70.9973L49.6467 71.9963ZM46 68.6288H45C45 68.6434 45.0003 68.658 45.001 68.6726L46 68.6288ZM52.9966 68.3717L51.9969 68.3941C51.997 68.4012 51.9973 68.4083 51.9976 68.4153L52.9966 68.3717ZM49.4771 65V64C49.462 64 49.4469 64.0003 49.4318 64.001L49.4771 65ZM65.6467 71.9963L65.6048 70.9972L65.6014 70.9973L65.6467 71.9963ZM62 68.6288H61C61 68.6434 61.0003 68.658 61.001 68.6726L62 68.6288ZM68.9966 68.3717L67.9969 68.3941C67.997 68.4012 67.9973 68.4083 67.9976 68.4153L68.9966 68.3717ZM65.4771 65V64C65.462 64 65.4469 64.0003 65.4318 64.001L65.4771 65ZM82.4588 87L82.4373 87.9998C82.4444 87.9999 82.4516 88 82.4588 88V87ZM79.0008 83.4979H80.0008C80.0008 83.4906 80.0007 83.4833 80.0006 83.476L79.0008 83.4979ZM82.4171 80V79C82.4099 79 82.4028 79.0001 82.3956 79.0002L82.4171 80ZM62 83.6246H61C61 83.6392 61.0003 83.6537 61.001 83.6683L62 83.6246ZM65.6467 86.9963L65.6048 85.9972L65.6014 85.9974L65.6467 86.9963ZM65.4771 80V79C65.462 79 65.4469 79.0003 65.4318 79.001L65.4771 80ZM68.9966 83.3759L67.9969 83.3983C67.997 83.4054 67.9973 83.4125 67.9976 83.4196L68.9966 83.3759ZM46 83.6246H45C45 83.6392 45.0003 83.6537 45.001 83.6683L46 83.6246ZM49.6467 86.9963L49.6048 85.9972L49.6014 85.9974L49.6467 86.9963ZM49.4771 80V79C49.462 79 49.4469 79.0003 49.4318 79.001L49.4771 80ZM52.9966 83.3759L51.9969 83.3983C51.997 83.4054 51.9973 83.4125 51.9976 83.4196L52.9966 83.3759ZM82.4784 65V64C82.4711 64 82.4639 64.0001 82.4566 64.0002L82.4784 65ZM79 68.6078H78C78 68.615 78.0001 68.6223 78.0002 68.6296L79 68.6078ZM82.6056 71.9991L82.5856 70.9993L82.5839 70.9994L82.6056 71.9991ZM85.9991 68.3956L86.9989 68.3738C86.9987 68.366 86.9985 68.3581 86.9981 68.3503L85.9991 68.3956ZM29.9998 51.0213C30.0256 49.8101 30.0883 48.0007 30.1911 46.3037C30.296 44.5703 30.4376 43.0611 30.6013 42.3829L28.6572 41.9136C28.4442 42.796 28.2972 44.4913 28.1947 46.1828C28.0901 47.9109 28.0265 49.747 28.0002 50.9787L29.9998 51.0213ZM30 82.0662V51H28V82.0662H30ZM49.7942 102C43.6578 102 38.7321 100.062 35.3424 96.6626C31.9526 93.2627 30 88.3016 30 82.0662H28C28 88.7256 30.0941 94.2314 33.9261 98.0747C37.7583 101.918 43.2297 104 49.7942 104V102ZM81.1657 102H49.7942V104H81.1657V102ZM101 82.3151C101 88.5081 99.0674 93.4038 95.6872 96.7504C92.3057 100.098 87.3702 102 81.1657 102V104C87.7823 104 93.264 101.964 97.0943 98.1716C100.926 94.3781 103 88.9313 103 82.3151H101ZM101 51V82.3151H103V51H101ZM100.404 42.3866C100.564 43.041 100.705 44.5454 100.809 46.2861C100.912 47.9879 100.974 49.8079 101 51.0213L103 50.9787C102.974 49.7451 102.91 47.8987 102.806 46.1661C102.704 44.4724 102.558 42.7745 102.346 41.9099L100.404 42.3866ZM83.4887 27.9959C92.3415 28.7958 98.5744 34.1185 100.398 42.3642L102.351 41.9323C100.327 32.7825 93.3333 26.8772 83.6686 26.0041L83.4887 27.9959ZM47.4254 28H83.5787V26H47.4254V28ZM30.6061 42.3624C32.4311 34.0366 38.5839 28.7561 47.5102 27.9964L47.3406 26.0036C37.589 26.8336 30.6752 32.7062 28.6525 41.9341L30.6061 42.3624ZM49.6014 70.9973C48.2186 71.0601 47.0603 69.9828 46.999 68.585L45.001 68.6726C45.1093 71.1439 47.1737 73.1096 49.6921 72.9953L49.6014 70.9973ZM51.9976 68.4153C52.0576 69.7905 50.976 70.9397 49.6048 70.9972L49.6887 72.9954C52.1338 72.8928 54.1053 70.8388 53.9957 68.3281L51.9976 68.4153ZM49.4771 66C50.8655 66 51.9672 67.0686 51.9969 68.3941L53.9964 68.3493C53.9413 65.89 51.905 64 49.4771 64V66ZM47 68.6288C47 67.2257 48.105 66.0633 49.5224 65.999L49.4318 64.001C46.9481 64.1137 45 66.1545 45 68.6288H47ZM65.6014 70.9973C64.2186 71.0601 63.0603 69.9828 62.999 68.585L61.001 68.6726C61.1093 71.1439 63.1737 73.1096 65.6921 72.9953L65.6014 70.9973ZM67.9976 68.4153C68.0576 69.7905 66.976 70.9397 65.6048 70.9972L65.6887 72.9954C68.1338 72.8928 70.1053 70.8388 69.9957 68.3281L67.9976 68.4153ZM65.4771 66C66.8655 66 67.9672 67.0686 67.9969 68.3941L69.9964 68.3493C69.9413 65.89 67.905 64 65.4771 64V66ZM63 68.6288C63 67.2257 64.105 66.0633 65.5224 65.999L65.4318 64.001C62.9481 64.1137 61 66.1545 61 68.6288H63ZM82.4802 86.0002C81.1002 85.9706 80.0008 84.8419 80.0008 83.4979H78.0008C78.0008 85.9445 79.9844 87.947 82.4373 87.9998L82.4802 86.0002ZM85 83.4979C85 84.8716 83.8751 86 82.4588 86V88C84.9586 88 87 85.9971 87 83.4979H85ZM82.4588 81C83.8759 81 85 82.1291 85 83.4979H87C87 81.0021 84.9578 79 82.4588 79V81ZM82.4171 81H82.4588V79H82.4171V81ZM80.0006 83.476C79.9715 82.1548 81.0525 81.0296 82.4386 80.9998L82.3956 79.0002C79.9488 79.0528 77.9468 81.0506 78.0011 83.5199L80.0006 83.476ZM61.001 83.6683C61.1092 86.1431 63.173 88.1096 65.6921 87.9953L65.6014 85.9974C64.2193 86.0601 63.0604 84.9835 62.999 83.5809L61.001 83.6683ZM65.4318 79.001C62.9495 79.1137 61 81.1488 61 83.6246H63C63 82.223 64.1035 81.0634 65.5224 80.999L65.4318 79.001ZM69.9964 83.3536C69.9413 80.8908 67.9058 79 65.4771 79V81C66.8647 81 67.9671 82.0679 67.9969 83.3983L69.9964 83.3536ZM65.6887 87.9954C68.133 87.8929 70.1054 85.8396 69.9957 83.3322L67.9976 83.4196C68.0575 84.7897 66.9768 85.9396 65.6048 85.9972L65.6887 87.9954ZM45.001 83.6683C45.1092 86.1431 47.173 88.1096 49.6921 87.9953L49.6014 85.9974C48.2193 86.0601 47.0604 84.9835 46.999 83.5809L45.001 83.6683ZM49.4318 79.001C46.9495 79.1137 45 81.1488 45 83.6246H47C47 82.223 48.1035 81.0634 49.5224 80.999L49.4318 79.001ZM53.9964 83.3536C53.9413 80.8908 51.9058 79 49.4771 79V81C50.8647 81 51.9671 82.0679 51.9969 83.3983L53.9964 83.3536ZM49.6887 87.9954C52.133 87.8929 54.1054 85.8396 53.9957 83.3322L51.9976 83.4196C52.0575 84.7897 50.9768 85.9396 49.6048 85.9972L49.6887 87.9954ZM80 68.5653C80 67.153 81.0962 66.0303 82.5001 65.9998L82.4566 64.0002C79.958 64.0546 78 66.0728 78 68.5653H80ZM80 68.6078V68.5653H78V68.6078H80ZM82.5839 70.9994C81.162 71.0303 80.0297 69.9596 79.9998 68.586L78.0002 68.6296C78.0552 71.1524 80.1467 73.0528 82.6274 72.9989L82.5839 70.9994ZM84.9994 68.4173C85.0301 69.8327 83.926 70.9725 82.5856 70.9993L82.6256 72.9989C85.1029 72.9493 87.053 70.8634 86.9989 68.3738L84.9994 68.4173ZM82.4784 66C83.8346 66 84.9387 67.0851 85.0002 68.4408L86.9981 68.3503C86.8899 65.9624 84.9398 64 82.4784 64V66Z" fill="url(#paint1_linear_237_4007)" mask="url(#path-3-outside-1_237_4007)"/>
</g>
<g filter="url(#filter2_bd_237_4007)">
<path fill-rule="evenodd" clip-rule="evenodd" d="M53 36.8126C53 38.6381 51.7143 40 50 40C48.2857 40 47 38.6381 47 36.8126V24.1915C47 22.366 48.2857 21 50 21C51.7143 21 53 22.366 53 24.1915V36.8126ZM83 36.8126C83 38.6381 81.6753 40 80 40C78.2857 40 77 38.6381 77 36.8126V24.1915C77 22.366 78.2857 21 80 21C81.6753 21 83 22.366 83 24.1915V36.8126Z" fill="url(#paint2_linear_237_4007)"/>
</g>
<g filter="url(#filter3_bd_237_4007)">
<path fill-rule="evenodd" clip-rule="evenodd" d="M45 68.6288C45.0848 70.5633 46.6962 72.0848 48.6467 71.9963C50.5549 71.9162 52.0814 70.3147 51.9966 68.3717C51.9542 66.4793 50.3853 65 48.4771 65C46.5265 65.0885 45 66.6901 45 68.6288ZM62 68.6288C62.0848 70.5633 63.6962 72.0848 65.6467 71.9963C67.5549 71.9162 69.0814 70.3147 68.9966 68.3717C68.9542 66.4793 67.3853 65 65.4771 65C63.5265 65.0885 62 66.6901 62 68.6288ZM78.0008 83.4979C78.0008 85.3932 79.5423 86.9588 81.4588 87C83.4169 87 85 85.4344 85 83.4979C85 81.5656 83.4169 80 81.4588 80H81.4171C79.5006 80.0412 77.9592 81.6027 78.0008 83.4979ZM65.6467 86.9963C63.6962 87.0848 62.0848 85.5633 62 83.6246C62 81.6859 63.5265 80.0885 65.4771 80C67.3853 80 68.9542 81.4793 68.9966 83.3759C69.0814 85.3147 67.5549 86.9162 65.6467 86.9963ZM48.6467 86.9963C46.6962 87.0848 45.0848 85.5633 45 83.6246C45 81.6859 46.5265 80.0885 48.4771 80C50.3853 80 51.9542 81.4793 51.9966 83.3759C52.0814 85.3147 50.5549 86.9162 48.6467 86.9963ZM81.4784 65C79.5271 65.0424 78 66.6129 78 68.5653V68.6078C78.0424 70.556 79.6543 72.0416 81.6056 71.9991C83.5145 71.9609 85.0416 70.348 84.9991 68.3956C84.9143 66.5238 83.3872 65 81.4784 65Z" fill="url(#paint3_linear_237_4007)"/>
</g>
<g opacity="0.5" filter="url(#filter4_b_237_4007)">
<path d="M33 51C33 52.6753 34.333 54 36.1198 54L93.8762 54C95.6629 54 97 52.6753 97 51C97 49.2857 95.6629 48 93.8762 48L36.1198 48C34.333 48 33 49.2857 33 51Z" fill="url(#paint4_linear_237_4007)" fill-opacity="0.5"/>
</g>
<defs>
<filter id="filter0_f_237_4007" x="0.657227" y="0.291504" width="90.7744" height="96.7739" filterUnits="userSpaceOnUse" color-interpolation-filters="sRGB">
<feFlood flood-opacity="0" result="BackgroundImageFix"/>
<feBlend mode="normal" in="SourceGraphic" in2="BackgroundImageFix" result="shape"/>
<feGaussianBlur stdDeviation="9.5" result="effect1_foregroundBlur_237_4007"/>
</filter>
<filter id="filter1_b_237_4007" x="4" y="2" width="123" height="126" filterUnits="userSpaceOnUse" color-interpolation-filters="sRGB">
<feFlood flood-opacity="0" result="BackgroundImageFix"/>
<feGaussianBlur in="BackgroundImageFix" stdDeviation="12"/>
<feComposite in2="SourceAlpha" operator="in" result="effect1_backgroundBlur_237_4007"/>
<feBlend mode="normal" in="SourceGraphic" in2="effect1_backgroundBlur_237_4007" result="shape"/>
</filter>
<filter id="filter2_bd_237_4007" x="32" y="6" width="66" height="49" filterUnits="userSpaceOnUse" color-interpolation-filters="sRGB">
<feFlood flood-opacity="0" result="BackgroundImageFix"/>
<feGaussianBlur in="BackgroundImageFix" stdDeviation="7.5"/>
<feComposite in2="SourceAlpha" operator="in" result="effect1_backgroundBlur_237_4007"/>
<feColorMatrix in="SourceAlpha" type="matrix" values="0 0 0 0 0 0 0 0 0 0 0 0 0 0 0 0 0 0 127 0" result="hardAlpha"/>
<feOffset dx="5" dy="5"/>
<feGaussianBlur stdDeviation="5"/>
<feColorMatrix type="matrix" values="0 0 0 0 1 0 0 0 0 0.537255 0 0 0 0 0.160784 0 0 0 0.2 0"/>
<feBlend mode="normal" in2="effect1_backgroundBlur_237_4007" result="effect2_dropShadow_237_4007"/>
<feBlend mode="normal" in="SourceGraphic" in2="effect2_dropShadow_237_4007" result="shape"/>
</filter>
<filter id="filter3_bd_237_4007" x="30" y="50" width="70" height="52" filterUnits="userSpaceOnUse" color-interpolation-filters="sRGB">
<feFlood flood-opacity="0" result="BackgroundImageFix"/>
<feGaussianBlur in="BackgroundImageFix" stdDeviation="7.5"/>
<feComposite in2="SourceAlpha" operator="in" result="effect1_backgroundBlur_237_4007"/>
<feColorMatrix in="SourceAlpha" type="matrix" values="0 0 0 0 0 0 0 0 0 0 0 0 0 0 0 0 0 0 127 0" result="hardAlpha"/>
<feOffset dx="5" dy="5"/>
<feGaussianBlur stdDeviation="5"/>
<feColorMatrix type="matrix" values="0 0 0 0 1 0 0 0 0 0.52549 0 0 0 0 0.137255 0 0 0 0.5 0"/>
<feBlend mode="normal" in2="effect1_backgroundBlur_237_4007" result="effect2_dropShadow_237_4007"/>
<feBlend mode="normal" in="SourceGraphic" in2="effect2_dropShadow_237_4007" result="shape"/>
</filter>
<filter id="filter4_b_237_4007" x="18" y="33" width="94" height="36" filterUnits="userSpaceOnUse" color-interpolation-filters="sRGB">
<feFlood flood-opacity="0" result="BackgroundImageFix"/>
<feGaussianBlur in="BackgroundImageFix" stdDeviation="7.5"/>
<feComposite in2="SourceAlpha" operator="in" result="effect1_backgroundBlur_237_4007"/>
<feBlend mode="normal" in="SourceGraphic" in2="effect1_backgroundBlur_237_4007" result="shape"/>
</filter>
<linearGradient id="paint0_linear_237_4007" x1="63.721" y1="14.2076" x2="34.1997" y2="84.307" gradientUnits="userSpaceOnUse">
<stop stop-color="#FFB37F"/>
<stop offset="1" stop-color="#FF7B0D"/>
</linearGradient>
<linearGradient id="paint1_linear_237_4007" x1="40.6204" y1="35.8541" x2="89.4754" y2="93.9737" gradientUnits="userSpaceOnUse">
<stop stop-color="white" stop-opacity="0.25"/>
<stop offset="1" stop-color="white" stop-opacity="0"/>
</linearGradient>
<linearGradient id="paint2_linear_237_4007" x1="80.9674" y1="37.0515" x2="82.0975" y2="22.7842" gradientUnits="userSpaceOnUse">
<stop stop-color="white"/>
<stop offset="1" stop-color="white" stop-opacity="0.2"/>
</linearGradient>
<linearGradient id="paint3_linear_237_4007" x1="81.7245" y1="68.9727" x2="15.068" y2="64.6688" gradientUnits="userSpaceOnUse">
<stop stop-color="white"/>
<stop offset="1" stop-color="white" stop-opacity="0.2"/>
</linearGradient>
<linearGradient id="paint4_linear_237_4007" x1="50.2738" y1="50.9153" x2="48.0892" y2="43.8854" gradientUnits="userSpaceOnUse">
<stop stop-color="white"/>
<stop offset="1" stop-color="white" stop-opacity="0.2"/>
</linearGradient>
</defs>
</svg>
