<svg width="111" height="103" viewBox="0 0 111 103" fill="none" xmlns="http://www.w3.org/2000/svg">
<g filter="url(#filter0_b_854_942)">
<path d="M57.208 5.82907L21.1086 15.4866C7.95344 19.006 2.49987 28.4519 6.0296 41.6042L15.7064 77.6617C19.2361 90.814 28.6894 96.2719 41.8446 92.7525L77.944 83.095C91.0991 79.5756 96.5183 70.1389 92.9886 56.9866L83.3118 20.9291C79.7821 7.77677 70.3631 2.30971 57.208 5.82907Z" fill="url(#paint0_linear_854_942)"/>
</g>
<g opacity="0.5" filter="url(#filter1_f_854_942)">
<path d="M74.8031 52.9667L68.257 28.2089C65.8825 19.2286 59.9388 15.2022 52.1232 17.2622L25.6528 24.2392C17.7091 26.333 14.6328 32.7369 17.0073 41.7171L23.5535 66.4749C25.9662 75.6 31.7684 79.5057 39.7121 77.4119L66.1825 70.4349C73.9981 68.3749 77.2159 62.0917 74.8031 52.9667Z" fill="#FF624D"/>
</g>
<g filter="url(#filter2_b_854_942)">
<mask id="path-3-outside-1_854_942" maskUnits="userSpaceOnUse" x="28.5" y="21" width="82" height="82" fill="black">
<rect fill="white" x="28.5" y="21" width="82" height="82"/>
<path d="M88.2022 22H50.8333C37.2156 22 29.5 29.7156 29.5 43.3333V80.6667C29.5 94.2844 37.2156 102 50.8333 102H88.2022C101.82 102 109.5 94.2844 109.5 80.6667V43.3333C109.5 29.7156 101.82 22 88.2022 22"/>
</mask>
<path d="M88.2022 22H50.8333C37.2156 22 29.5 29.7156 29.5 43.3333V80.6667C29.5 94.2844 37.2156 102 50.8333 102H88.2022C101.82 102 109.5 94.2844 109.5 80.6667V43.3333C109.5 29.7156 101.82 22 88.2022 22" fill="#FFAC95" fill-opacity="0.4"/>
<path d="M88.2022 23C88.7545 23 89.2022 22.5523 89.2022 22C89.2022 21.4477 88.7545 21 88.2022 21V23ZM88.2022 21C87.6499 21 87.2022 21.4477 87.2022 22C87.2022 22.5523 87.6499 23 88.2022 23V21ZM88.2022 21H50.8333V23H88.2022V21ZM50.8333 21C43.8385 21 38.221 22.9848 34.3529 26.8529C30.4848 30.721 28.5 36.3385 28.5 43.3333H30.5C30.5 36.7104 32.373 31.6612 35.7671 28.2671C39.1612 24.873 44.2104 23 50.8333 23V21ZM28.5 43.3333V80.6667H30.5V43.3333H28.5ZM28.5 80.6667C28.5 87.6615 30.4848 93.279 34.3529 97.1471C38.221 101.015 43.8385 103 50.8333 103V101C44.2104 101 39.1612 99.127 35.7671 95.7329C32.373 92.3388 30.5 87.2896 30.5 80.6667H28.5ZM50.8333 103H88.2022V101H50.8333V103ZM88.2022 103C95.1971 103 100.806 101.015 104.666 97.1462C108.525 93.2777 110.5 87.6602 110.5 80.6667H108.5C108.5 87.2909 106.635 92.3401 103.25 95.7338C99.8648 99.1271 94.8251 101 88.2022 101V103ZM110.5 80.6667V43.3333H108.5V80.6667H110.5ZM110.5 43.3333C110.5 36.3398 108.525 30.7223 104.666 26.8538C100.806 22.9848 95.1971 21 88.2022 21V23C94.8251 23 99.8648 24.8729 103.25 28.2662C106.635 31.6599 108.5 36.7091 108.5 43.3333H110.5Z" fill="url(#paint1_linear_854_942)" mask="url(#path-3-outside-1_854_942)"/>
</g>
<g filter="url(#filter3_bd_854_942)">
<path fill-rule="evenodd" clip-rule="evenodd" d="M69.9813 39C68.0722 39 66.5 40.4853 66.5 42.3243V82.7111C66.5 84.5147 68.0722 86 69.9813 86C71.9278 86 73.5 84.5147 73.5 82.7111V42.3243C73.5 40.4853 71.9278 39 69.9813 39ZM50.9813 52C49.0722 52 47.5 53.4875 47.5 55.3292V82.7062C47.5 84.5125 49.0722 86 50.9813 86C52.9278 86 54.5 84.5125 54.5 82.7062V55.3292C54.5 53.4875 52.9278 52 50.9813 52ZM84.5 69.4058C84.5 67.5217 86.0722 66 88.0187 66C89.9278 66 91.5 67.5217 91.5 69.4058V82.6304C91.5 84.4783 89.9278 86 87.9813 86C86.0722 86 84.5 84.4783 84.5 82.6304V69.4058Z" fill="url(#paint2_linear_854_942)"/>
</g>
<defs>
<filter id="filter0_b_854_942" x="-8.02148" y="-8.2146" width="115.064" height="115.012" filterUnits="userSpaceOnUse" color-interpolation-filters="sRGB">
<feFlood flood-opacity="0" result="BackgroundImageFix"/>
<feGaussianBlur in="BackgroundImageFix" stdDeviation="6.5"/>
<feComposite in2="SourceAlpha" operator="in" result="effect1_backgroundBlur_854_942"/>
<feBlend mode="normal" in="SourceGraphic" in2="effect1_backgroundBlur_854_942" result="shape"/>
</filter>
<filter id="filter1_f_854_942" x="3.22461" y="3.73364" width="85.3652" height="87.2305" filterUnits="userSpaceOnUse" color-interpolation-filters="sRGB">
<feFlood flood-opacity="0" result="BackgroundImageFix"/>
<feBlend mode="normal" in="SourceGraphic" in2="BackgroundImageFix" result="shape"/>
<feGaussianBlur stdDeviation="6.5" result="effect1_foregroundBlur_854_942"/>
</filter>
<filter id="filter2_b_854_942" x="13.5" y="6" width="112" height="112" filterUnits="userSpaceOnUse" color-interpolation-filters="sRGB">
<feFlood flood-opacity="0" result="BackgroundImageFix"/>
<feGaussianBlur in="BackgroundImageFix" stdDeviation="7.5"/>
<feComposite in2="SourceAlpha" operator="in" result="effect1_backgroundBlur_854_942"/>
<feBlend mode="normal" in="SourceGraphic" in2="effect1_backgroundBlur_854_942" result="shape"/>
</filter>
<filter id="filter3_bd_854_942" x="32.5" y="24" width="74" height="77" filterUnits="userSpaceOnUse" color-interpolation-filters="sRGB">
<feFlood flood-opacity="0" result="BackgroundImageFix"/>
<feGaussianBlur in="BackgroundImageFix" stdDeviation="7.5"/>
<feComposite in2="SourceAlpha" operator="in" result="effect1_backgroundBlur_854_942"/>
<feColorMatrix in="SourceAlpha" type="matrix" values="0 0 0 0 0 0 0 0 0 0 0 0 0 0 0 0 0 0 127 0" result="hardAlpha"/>
<feOffset dx="5" dy="5"/>
<feGaussianBlur stdDeviation="5"/>
<feColorMatrix type="matrix" values="0 0 0 0 1 0 0 0 0 0.447059 0 0 0 0 0.368627 0 0 0 0.5 0"/>
<feBlend mode="normal" in2="effect1_backgroundBlur_854_942" result="effect2_dropShadow_854_942"/>
<feBlend mode="normal" in="SourceGraphic" in2="effect2_dropShadow_854_942" result="shape"/>
</filter>
<linearGradient id="paint0_linear_854_942" x1="56.5872" y1="52.9474" x2="-2.43579" y2="104.154" gradientUnits="userSpaceOnUse">
<stop stop-color="#FFA78F"/>
<stop offset="1" stop-color="#F23E2C"/>
</linearGradient>
<linearGradient id="paint1_linear_854_942" x1="42.2347" y1="31.3201" x2="93.2662" y2="94.5238" gradientUnits="userSpaceOnUse">
<stop stop-color="white" stop-opacity="0.25"/>
<stop offset="1" stop-color="white" stop-opacity="0"/>
</linearGradient>
<linearGradient id="paint2_linear_854_942" x1="36.1891" y1="73.4955" x2="56.1155" y2="115.116" gradientUnits="userSpaceOnUse">
<stop stop-color="white"/>
<stop offset="1" stop-color="white" stop-opacity="0.2"/>
</linearGradient>
</defs>
</svg>
