<svg width="108" height="102" viewBox="0 0 108 102" fill="none" xmlns="http://www.w3.org/2000/svg">
<path d="M53.2736 65.692C52.9455 65.8812 52.574 65.9954 52.1896 66.0134L39.803 66.5943C36.2874 66.7577 33.2625 66.4101 30.5522 65.5359C24.6218 63.6256 19.6417 59.6549 16.533 54.3494L6.29418 36.891C5.11209 34.8763 5.3728 32.3057 6.93569 30.4927L20.9377 14.2994C21.764 13.329 22.9214 12.6545 24.1869 12.4011L45.1724 8.13779C47.5196 7.65745 49.8923 8.69196 51.0702 10.7056L61.3165 28.1769C64.4234 33.4731 65.4568 39.7478 64.229 45.8455C63.6653 48.6428 62.4863 51.4462 60.6285 54.4167L54.0814 64.9049C53.8792 65.2322 53.6002 65.5001 53.2736 65.692Z" fill="url(#paint0_linear_854_593)"/>
<g filter="url(#filter0_f_854_593)">
<path d="M47.7641 55.0844C47.5369 55.2154 47.2841 55.3021 47.027 55.3301L38.7423 56.2352C36.391 56.4911 34.3895 56.4107 32.621 55.9922C28.7513 55.0781 25.6066 52.8534 23.7686 49.7242L17.7146 39.4275C17.0156 38.2393 17.3033 36.645 18.4256 35.4597L28.4787 24.8707C29.0726 24.2368 29.8742 23.7704 30.7292 23.5584L44.9105 20.0062C46.4968 19.6068 48.033 20.1389 48.7293 21.3266L54.7877 31.631C56.6249 34.7545 57.0361 38.5722 55.9475 42.3808C55.4478 44.128 54.5376 45.9061 53.1673 47.8172L48.3375 54.5641C48.1882 54.7745 47.9903 54.9518 47.7641 55.0844Z" fill="#1EA51F" fill-opacity="0.5"/>
</g>
<g filter="url(#filter1_b_854_593)">
<mask id="path-3-outside-1_854_593" maskUnits="userSpaceOnUse" x="24.3747" y="8.8599" width="83.9552" height="93.9476" fill="black">
<rect fill="white" x="24.3747" y="8.8599" width="83.9552" height="93.9476"/>
<path d="M60.462 96.4098C59.9581 96.3324 59.4718 96.1398 59.0532 95.8355L45.5605 86.0314C41.7322 83.2472 38.8498 80.3397 36.7416 77.1443C32.1265 70.1555 30.2462 61.8049 31.4556 53.6278L35.4257 26.7124C35.8832 23.6059 38.3241 21.1293 41.4932 20.5421L69.8439 15.3323C71.5294 15.0094 73.313 15.2751 74.8552 16.0733L100.479 29.2449C103.348 30.7145 104.967 33.794 104.506 36.8959L100.532 63.8312C99.329 71.997 95.1239 79.4458 88.6943 84.808C85.7443 87.2674 82.1432 89.216 77.6887 90.7692L61.9735 96.2636C61.4855 96.4367 60.9666 96.4832 60.462 96.4098Z"/>
</mask>
<path d="M60.462 96.4098C59.9581 96.3324 59.4718 96.1398 59.0532 95.8355L45.5605 86.0314C41.7322 83.2472 38.8498 80.3397 36.7416 77.1443C32.1265 70.1555 30.2462 61.8049 31.4556 53.6278L35.4257 26.7124C35.8832 23.6059 38.3241 21.1293 41.4932 20.5421L69.8439 15.3323C71.5294 15.0094 73.313 15.2751 74.8552 16.0733L100.479 29.2449C103.348 30.7145 104.967 33.794 104.506 36.8959L100.532 63.8312C99.329 71.997 95.1239 79.4458 88.6943 84.808C85.7443 87.2674 82.1432 89.216 77.6887 90.7692L61.9735 96.2636C61.4855 96.4367 60.9666 96.4832 60.462 96.4098Z" fill="#72DC60" fill-opacity="0.35"/>
<path d="M60.3098 97.3981C60.8557 97.4819 61.3664 97.1074 61.4505 96.5615C61.5346 96.0157 61.1602 95.5052 60.6143 95.4214L60.3098 97.3981ZM59.0532 95.8355L59.6414 95.0265L59.6413 95.0265L59.0532 95.8355ZM45.5605 86.0314L44.9719 86.8402L44.9723 86.8404L45.5605 86.0314ZM36.7416 77.1443L37.5764 76.5934L37.5762 76.5931L36.7416 77.1443ZM31.4556 53.6278L32.4449 53.7736L32.4449 53.7732L31.4556 53.6278ZM35.4257 26.7124L36.415 26.8578L36.4151 26.8576L35.4257 26.7124ZM41.4932 20.5421L41.3129 19.5586L41.3114 19.5589L41.4932 20.5421ZM69.8439 15.3323L70.0242 16.3158L70.0316 16.3144L69.8439 15.3323ZM74.8552 16.0733L74.3951 16.9613L74.3976 16.9626L74.8552 16.0733ZM100.479 29.2449L100.021 30.1343L100.023 30.1349L100.479 29.2449ZM104.506 36.8959L103.516 36.7494L103.516 36.7505L104.506 36.8959ZM100.532 63.8312L99.543 63.6857L99.543 63.6859L100.532 63.8312ZM88.6943 84.808L89.3345 85.5758L89.3347 85.5757L88.6943 84.808ZM77.6887 90.7692L77.3598 89.8251L77.359 89.8253L77.6887 90.7692ZM61.9735 96.2636L61.6438 95.3197L61.6395 95.3212L61.9735 96.2636ZM60.6065 95.4203C60.06 95.3407 59.5522 95.7193 59.4725 96.2658C59.3927 96.8123 59.7711 97.3198 60.3176 97.3993L60.6065 95.4203ZM60.6143 95.4214C60.2599 95.367 59.9247 95.2325 59.6414 95.0265L58.4649 96.6444C59.019 97.0471 59.6563 97.2978 60.3098 97.3981L60.6143 95.4214ZM59.6413 95.0265L46.1486 85.2225L44.9723 86.8404L58.465 96.6445L59.6413 95.0265ZM46.149 85.2227C42.3959 82.4932 39.6054 79.6686 37.5764 76.5934L35.9067 77.6952C38.0942 81.0108 41.0684 84.0012 44.9719 86.8402L46.149 85.2227ZM37.5762 76.5931C33.0945 69.8062 31.2721 61.7032 32.4449 53.7736L30.4662 53.4819C29.2203 61.9066 31.1585 70.5047 35.9069 77.6955L37.5762 76.5931ZM32.4449 53.7732L36.415 26.8578L34.4363 26.5669L30.4662 53.4823L32.4449 53.7732ZM36.4151 26.8576C36.8078 24.191 38.9097 22.0377 41.675 21.5253L41.3114 19.5589C37.7385 20.221 34.9586 23.0208 34.4363 26.5671L36.4151 26.8576ZM41.6735 21.5255L70.0242 16.3157L69.6636 14.3488L41.3129 19.5586L41.6735 21.5255ZM70.0316 16.3144C71.4926 16.0345 73.0484 16.2644 74.3951 16.9613L75.3152 15.1852C73.5775 14.2859 71.5662 13.9844 69.6562 14.3502L70.0316 16.3144ZM74.3976 16.9626L100.021 30.1343L100.937 28.3556L75.3128 15.1839L74.3976 16.9626ZM100.023 30.1349C102.524 31.4161 103.912 34.0868 103.516 36.7494L105.495 37.0424C106.021 33.5013 104.172 30.0129 100.935 28.3549L100.023 30.1349ZM103.516 36.7505L99.543 63.6857L101.522 63.9766L105.495 37.0414L103.516 36.7505ZM99.543 63.6859C98.376 71.6045 94.2977 78.833 88.0539 84.0402L89.3347 85.5757C95.9501 80.0585 100.282 72.3896 101.522 63.9765L99.543 63.6859ZM88.0541 84.0401C85.2151 86.407 81.7263 88.3026 77.3598 89.8251L78.0176 91.7133C82.5602 90.1295 86.2735 88.1278 89.3345 85.5758L88.0541 84.0401ZM77.359 89.8253L61.6438 95.3197L62.3032 97.2074L78.0184 91.7131L77.359 89.8253ZM61.6395 95.3212C61.3095 95.4383 60.9552 95.471 60.6065 95.4203L60.3176 97.3993C60.9781 97.4954 61.6615 97.4352 62.3076 97.2059L61.6395 95.3212Z" fill="url(#paint1_linear_854_593)" mask="url(#path-3-outside-1_854_593)"/>
</g>
<g filter="url(#filter2_bd_854_593)">
<path d="M62.4835 65.4068C61.7004 65.2907 60.9619 64.8857 60.449 64.2074L53.852 55.4745C52.8344 54.1192 53.115 52.2158 54.4826 51.2185C55.8507 50.2172 57.7882 50.5024 58.8105 51.8543L63.5578 58.1351L79.2811 46.645C80.6533 45.6443 82.5908 45.9295 83.6091 47.2808C84.6307 48.6367 84.3494 50.544 82.9825 51.5373L64.777 64.8432C64.0905 65.3456 63.2665 65.5229 62.4835 65.4068Z" fill="url(#paint2_linear_854_593)"/>
</g>
<defs>
<filter id="filter0_f_854_593" x="1.33594" y="3.87488" width="71.208" height="68.5062" filterUnits="userSpaceOnUse" color-interpolation-filters="sRGB">
<feFlood flood-opacity="0" result="BackgroundImageFix"/>
<feBlend mode="normal" in="SourceGraphic" in2="BackgroundImageFix" result="shape"/>
<feGaussianBlur stdDeviation="8" result="effect1_foregroundBlur_854_593"/>
</filter>
<filter id="filter1_b_854_593" x="6.09766" y="-9.80164" width="123.486" height="131.245" filterUnits="userSpaceOnUse" color-interpolation-filters="sRGB">
<feFlood flood-opacity="0" result="BackgroundImageFix"/>
<feGaussianBlur in="BackgroundImageFix" stdDeviation="12"/>
<feComposite in2="SourceAlpha" operator="in" result="effect1_backgroundBlur_854_593"/>
<feBlend mode="normal" in="SourceGraphic" in2="effect1_backgroundBlur_854_593" result="shape"/>
</filter>
<filter id="filter2_bd_854_593" x="38.2402" y="31.0472" width="60.9834" height="49.3938" filterUnits="userSpaceOnUse" color-interpolation-filters="sRGB">
<feFlood flood-opacity="0" result="BackgroundImageFix"/>
<feGaussianBlur in="BackgroundImageFix" stdDeviation="7.5"/>
<feComposite in2="SourceAlpha" operator="in" result="effect1_backgroundBlur_854_593"/>
<feColorMatrix in="SourceAlpha" type="matrix" values="0 0 0 0 0 0 0 0 0 0 0 0 0 0 0 0 0 0 127 0" result="hardAlpha"/>
<feOffset dx="5" dy="5"/>
<feGaussianBlur stdDeviation="5"/>
<feColorMatrix type="matrix" values="0 0 0 0 0.454902 0 0 0 0 0.870588 0 0 0 0 0.376471 0 0 0 0.5 0"/>
<feBlend mode="normal" in2="effect1_backgroundBlur_854_593" result="effect2_dropShadow_854_593"/>
<feBlend mode="normal" in="SourceGraphic" in2="effect2_dropShadow_854_593" result="shape"/>
</filter>
<linearGradient id="paint0_linear_854_593" x1="45.0442" y1="0.0189376" x2="29.0492" y2="59.356" gradientUnits="userSpaceOnUse">
<stop stop-color="#9BF763"/>
<stop offset="1" stop-color="#26AB5B"/>
</linearGradient>
<linearGradient id="paint1_linear_854_593" x1="47.5593" y1="21.1328" x2="91.768" y2="85.0669" gradientUnits="userSpaceOnUse">
<stop stop-color="white" stop-opacity="0.25"/>
<stop offset="1" stop-color="white" stop-opacity="0"/>
</linearGradient>
<linearGradient id="paint2_linear_854_593" x1="81.9453" y1="50.1565" x2="48.7211" y2="46.5404" gradientUnits="userSpaceOnUse">
<stop stop-color="white"/>
<stop offset="1" stop-color="white" stop-opacity="0.2"/>
</linearGradient>
</defs>
</svg>
