<svg width="202" height="136" viewBox="0 0 202 136" fill="none" xmlns="http://www.w3.org/2000/svg">
<path d="M2 94.688C2 94.688 18.3779 54.1453 40.7442 52.5076C64.7881 50.747 62.8667 86.7741 85.6261 94.688C104.011 101.081 127.097 36.7059 138.372 52.5076C151.99 71.5937 176.123 5.74646 196.872 5.74646" stroke="#7CC300" stroke-width="3"/>
<path d="M40.7442 51.8551C18.3779 53.4923 2 94.023 2 94.023V136H196.872V5.10799C176.123 5.10799 151.99 70.9356 138.372 51.8551C127.097 36.0582 104.011 100.414 85.6261 94.023C62.8667 86.1114 64.7881 50.0951 40.7442 51.8551Z" fill="url(#paint0_linear_51_1538)" fill-opacity="0.6"/>
<path d="M200.5 5.10798C200.5 7.09503 198.881 8.71596 196.872 8.71596C194.862 8.71596 193.243 7.09503 193.243 5.10798C193.243 3.12093 194.862 1.5 196.872 1.5C198.881 1.5 200.5 3.12093 200.5 5.10798Z" fill="white" stroke="#7CC300" stroke-width="3"/>
<defs>
<linearGradient id="paint0_linear_51_1538" x1="99.4359" y1="5.10799" x2="99.4359" y2="151.264" gradientUnits="userSpaceOnUse">
<stop stop-color="#8DC733"/>
<stop offset="1" stop-color="#D9D9D9" stop-opacity="0"/>
<stop offset="1" stop-color="white" stop-opacity="0"/>
</linearGradient>
</defs>
</svg>
