<svg width="32" height="32" viewBox="0 0 32 32" fill="none" xmlns="http://www.w3.org/2000/svg">
<path d="M9.4525 3.10074C9.63532 2.58363 9.97403 2.13595 10.4219 1.8194C10.8699 1.50286 11.4049 1.33303 11.9534 1.33331H17.2557C17.8041 1.33303 18.3392 1.50286 18.7871 1.8194C19.235 2.13595 19.5737 2.58363 19.7566 3.10074H22.5579C23.2611 3.10074 23.9354 3.38005 24.4326 3.87723C24.9297 4.37442 25.2091 5.04874 25.2091 5.75187V26.9609C25.2091 27.6641 24.9297 28.3384 24.4326 28.8356C23.9354 29.3327 23.2611 29.6121 22.5579 29.6121H6.65113C5.94801 29.6121 5.27368 29.3327 4.7765 28.8356C4.27931 28.3384 4 27.6641 4 26.9609V5.75187C4 5.04874 4.27931 4.37442 4.7765 3.87723C5.27368 3.38005 5.94801 3.10074 6.65113 3.10074H9.4525ZM11.9534 3.10074C11.719 3.10074 11.4942 3.19384 11.3285 3.35957C11.1628 3.5253 11.0697 3.75007 11.0697 3.98445C11.0697 4.21882 11.1628 4.4436 11.3285 4.60932C11.4942 4.77505 11.719 4.86816 11.9534 4.86816H17.2557C17.49 4.86816 17.7148 4.77505 17.8805 4.60932C18.0463 4.4436 18.1394 4.21882 18.1394 3.98445C18.1394 3.75007 18.0463 3.5253 17.8805 3.35957C17.7148 3.19384 17.49 3.10074 17.2557 3.10074H11.9534ZM9.4525 4.86816H6.65113C6.41676 4.86816 6.19198 4.96126 6.02625 5.12699C5.86053 5.29272 5.76742 5.51749 5.76742 5.75187V26.9609C5.76742 27.1953 5.86053 27.4201 6.02625 27.5858C6.19198 27.7515 6.41676 27.8446 6.65113 27.8446H22.5579C22.7923 27.8446 23.0171 27.7515 23.1828 27.5858C23.3485 27.4201 23.4416 27.1953 23.4416 26.9609V5.75187C23.4416 5.51749 23.3485 5.29272 23.1828 5.12699C23.0171 4.96126 22.7923 4.86816 22.5579 4.86816H19.7566C19.5737 5.38527 19.235 5.83294 18.7871 6.14949C18.3392 6.46603 17.8041 6.63587 17.2557 6.63558H11.9534C11.4049 6.63587 10.8699 6.46603 10.4219 6.14949C9.97403 5.83294 9.63532 5.38527 9.4525 4.86816Z" fill="#242424"/>
<path d="M27.3816 22.1005C27.3816 25.4973 24.6279 28.2511 21.231 28.2511C17.8342 28.2511 15.0805 25.4974 15.0805 22.1005C15.0805 18.7036 17.8342 15.9499 21.231 15.9499C24.6279 15.9499 27.3816 18.7036 27.3816 22.1005Z" fill="white" stroke="#242424" stroke-width="1.2"/>
<path d="M28.6322 22.1005C28.6322 26.1878 25.3188 29.5012 21.2315 29.5012C17.1443 29.5012 13.8309 26.1878 13.8309 22.1005C13.8309 18.0132 17.1443 14.6998 21.2315 14.6998C25.3188 14.6998 28.6322 18.0132 28.6322 22.1005Z" stroke="white" stroke-width="1.4"/>
<path d="M21.2315 19.4001V22.1004M21.2315 22.1004V24.8006M21.2315 22.1004H23.9317M21.2315 22.1004H18.5312" stroke="#242424" stroke-width="1.01259" stroke-linecap="round"/>
</svg>
