<svg width="32" height="32" viewBox="0 0 32 32" fill="none" xmlns="http://www.w3.org/2000/svg">
<path d="M20.4008 28C20.719 28 21.0243 27.8736 21.2493 27.6485C21.4744 27.4235 21.6008 27.1183 21.6008 26.8C21.6008 26.4817 21.4744 26.1765 21.2493 25.9515C21.0243 25.7264 20.719 25.6 20.4008 25.6H10.4008C9.55209 25.6 8.73816 25.2629 8.13804 24.6627C7.53792 24.0626 7.20078 23.2487 7.20078 22.4V9.6C7.20078 8.75131 7.53792 7.93737 8.13804 7.33726C8.73816 6.73714 9.55209 6.4 10.4008 6.4H20.4008C20.719 6.4 21.0243 6.27357 21.2493 6.04853C21.4744 5.82348 21.6008 5.51826 21.6008 5.2C21.6008 4.88174 21.4744 4.57652 21.2493 4.35147C21.0243 4.12643 20.719 4 20.4008 4H10.4008C8.91557 4 7.49119 4.59 6.44098 5.6402C5.39078 6.69041 4.80078 8.11479 4.80078 9.6V22.4C4.80078 23.8852 5.39078 25.3096 6.44098 26.3598C7.49119 27.41 8.91557 28 10.4008 28H20.4008ZM21.9864 9.9184C22.1021 9.81143 22.2378 9.72831 22.3857 9.67379C22.5336 9.61927 22.6908 9.59443 22.8483 9.60067C23.0058 9.60691 23.1605 9.64411 23.3036 9.71016C23.4467 9.77621 23.5754 9.8698 23.6824 9.9856L28.4824 15.1856C28.6873 15.4073 28.801 15.6981 28.801 16C28.801 16.3019 28.6873 16.5927 28.4824 16.8144L23.6824 22.0144C23.4662 22.248 23.166 22.3862 22.848 22.3985C22.5299 22.4108 22.22 22.2962 21.9864 22.08C21.7528 21.8638 21.6146 21.5636 21.6023 21.2456C21.59 20.9275 21.7046 20.6176 21.9208 20.384L24.8616 17.1984H12.4008C12.0825 17.1984 11.7773 17.072 11.5523 16.8469C11.3272 16.6219 11.2008 16.3167 11.2008 15.9984C11.2008 15.6801 11.3272 15.3749 11.5523 15.1499C11.7773 14.9248 12.0825 14.7984 12.4008 14.7984H24.86L21.9192 11.6128C21.8122 11.497 21.7291 11.3613 21.6746 11.2134C21.6201 11.0656 21.5952 10.9084 21.6014 10.7509C21.6077 10.5934 21.6449 10.4387 21.7109 10.2955C21.777 10.1524 21.8706 10.0237 21.9864 9.9168V9.9184Z" fill="#242424" stroke="white" stroke-width="0.5"/>
</svg>
