<svg width="32" height="32" viewBox="0 0 32 32" fill="none" xmlns="http://www.w3.org/2000/svg">
<path fill-rule="evenodd" clip-rule="evenodd" d="M4.66712 18.3828V18.0909C4.70995 17.227 4.98681 16.39 5.46916 15.6662C6.27202 14.7966 6.82162 13.7311 7.0603 12.5813C7.0603 11.6927 7.0603 10.7914 7.13792 9.90272C7.53894 5.62458 11.7691 2.66669 15.9474 2.66669H16.0509C20.2293 2.66669 24.4594 5.62458 24.8734 9.90272C24.951 10.7914 24.8734 11.6927 24.938 12.5813C25.1799 13.7338 25.729 14.8026 26.5292 15.6789C27.0151 16.3963 27.2924 17.2302 27.3312 18.0909V18.3702C27.3601 19.5307 26.9604 20.6624 26.2058 21.5565C25.2086 22.602 23.8555 23.2524 22.4026 23.3846C18.142 23.8416 13.8434 23.8416 9.58285 23.3846C8.13154 23.2467 6.78036 22.5972 5.77962 21.5565C5.03668 20.6618 4.64234 19.5368 4.66712 18.3828Z" stroke="#242424" stroke-width="2" stroke-linecap="round" stroke-linejoin="round"/>
<path d="M12.7402 27.8024C13.4059 28.6379 14.3835 29.1787 15.4566 29.305C16.5297 29.4312 17.6099 29.1326 18.458 28.4752C18.7189 28.2807 18.9536 28.0547 19.1566 27.8024" stroke="#242424" stroke-width="2" stroke-linecap="round" stroke-linejoin="round"/>
</svg>
