<svg width="26" height="34" viewBox="0 0 26 34" fill="none" xmlns="http://www.w3.org/2000/svg">
<path d="M12 12C12 11.7348 11.8946 11.4804 11.7071 11.2929C11.5196 11.1054 11.2652 11 11 11C10.7348 11 10.4804 11.1054 10.2929 11.2929C10.1054 11.4804 10 11.7348 10 12V13.268L8.902 12.634C8.78823 12.5673 8.66239 12.5238 8.53172 12.5059C8.40106 12.488 8.26815 12.4962 8.14065 12.5299C8.01315 12.5636 7.89358 12.6222 7.78882 12.7023C7.68406 12.7824 7.59618 12.8825 7.53024 12.9967C7.46429 13.1109 7.4216 13.237 7.4046 13.3678C7.3876 13.4986 7.39664 13.6314 7.43119 13.7587C7.46574 13.886 7.52513 14.0051 7.60593 14.1094C7.68673 14.2136 7.78735 14.3008 7.902 14.366L9 15L7.902 15.634C7.78735 15.6992 7.68673 15.7864 7.60593 15.8906C7.52513 15.9949 7.46574 16.114 7.43119 16.2413C7.39664 16.3686 7.3876 16.5014 7.4046 16.6322C7.4216 16.763 7.46429 16.8891 7.53024 17.0033C7.59618 17.1175 7.68406 17.2176 7.78882 17.2977C7.89358 17.3778 8.01315 17.4364 8.14065 17.4701C8.26815 17.5038 8.40106 17.512 8.53172 17.4941C8.66239 17.4762 8.78823 17.4327 8.902 17.366L10 16.732V18C10 18.2652 10.1054 18.5196 10.2929 18.7071C10.4804 18.8946 10.7348 19 11 19C11.2652 19 11.5196 18.8946 11.7071 18.7071C11.8946 18.5196 12 18.2652 12 18V16.732L13.098 17.366C13.2118 17.4327 13.3376 17.4762 13.4683 17.4941C13.5989 17.512 13.7318 17.5038 13.8593 17.4701C13.9868 17.4364 14.1064 17.3778 14.2112 17.2977C14.3159 17.2176 14.4038 17.1175 14.4698 17.0033C14.5357 16.8891 14.5784 16.763 14.5954 16.6322C14.6124 16.5014 14.6034 16.3686 14.5688 16.2413C14.5343 16.114 14.4749 15.9949 14.3941 15.8906C14.3133 15.7864 14.2126 15.6992 14.098 15.634L13 15L14.098 14.366C14.2126 14.3008 14.3133 14.2136 14.3941 14.1094C14.4749 14.0051 14.5343 13.886 14.5688 13.7587C14.6034 13.6314 14.6124 13.4986 14.5954 13.3678C14.5784 13.237 14.5357 13.1109 14.4698 12.9967C14.4038 12.8825 14.3159 12.7824 14.2112 12.7023C14.1064 12.6222 13.9868 12.5636 13.8593 12.5299C13.7318 12.4962 13.5989 12.488 13.4683 12.5059C13.3376 12.5238 13.2118 12.5673 13.098 12.634L12 13.268V12ZM8 21C7.73478 21 7.48043 21.1054 7.29289 21.2929C7.10536 21.4804 7 21.7348 7 22C7 22.2652 7.10536 22.5196 7.29289 22.7071C7.48043 22.8946 7.73478 23 8 23H18C18.2652 23 18.5196 22.8946 18.7071 22.7071C18.8946 22.5196 19 22.2652 19 22C19 21.7348 18.8946 21.4804 18.7071 21.2929C18.5196 21.1054 18.2652 21 18 21H8ZM8 25C7.73478 25 7.48043 25.1054 7.29289 25.2929C7.10536 25.4804 7 25.7348 7 26C7 26.2652 7.10536 26.5196 7.29289 26.7071C7.48043 26.8946 7.73478 27 8 27H18C18.2652 27 18.5196 26.8946 18.7071 26.7071C18.8946 26.5196 19 26.2652 19 26C19 25.7348 18.8946 25.4804 18.7071 25.2929C18.5196 25.1054 18.2652 25 18 25H8Z" fill="#242424" stroke="white" stroke-width="0.4"/>
<path d="M25 29V10L16 1H5C3.93913 1 2.92172 1.42143 2.17157 2.17157C1.42143 2.92172 1 3.93913 1 5V29C1 30.0609 1.42143 31.0783 2.17157 31.8284C2.92172 32.5786 3.93913 33 5 33H21C22.0609 33 23.0783 32.5786 23.8284 31.8284C24.5786 31.0783 25 30.0609 25 29ZM16 7C16 7.79565 16.3161 8.55871 16.8787 9.12132C17.4413 9.68393 18.2044 10 19 10H23V29C23 29.5304 22.7893 30.0391 22.4142 30.4142C22.0391 30.7893 21.5304 31 21 31H5C4.46957 31 3.96086 30.7893 3.58579 30.4142C3.21071 30.0391 3 29.5304 3 29V5C3 4.46957 3.21071 3.96086 3.58579 3.58579C3.96086 3.21071 4.46957 3 5 3H16V7Z" fill="#242424" stroke="white" stroke-width="0.4"/>
</svg>
