<svg width="32" height="32" viewBox="0 0 32 32" fill="none" xmlns="http://www.w3.org/2000/svg">
<path d="M14.7654 3.51069C15.1921 2.38535 16.8068 2.38535 17.2348 3.51069L19.9948 11.156C20.0911 11.4051 20.2606 11.6191 20.481 11.7697C20.7015 11.9204 20.9624 12.0007 21.2294 12H28.0121C29.2654 12 29.8121 13.56 28.8268 14.324L24.0001 18.6667C23.7839 18.8329 23.6259 19.0633 23.5488 19.3249C23.4716 19.5865 23.4793 19.8658 23.5708 20.1227L25.3334 27.5934C25.7628 28.7934 24.3734 29.824 23.3228 29.0854L16.7668 24.9254C16.5423 24.7676 16.2745 24.6829 16.0001 24.6829C15.7257 24.6829 15.458 24.7676 15.2334 24.9254L8.67744 29.0854C7.6281 29.824 6.23744 28.792 6.66677 27.5934L8.42944 20.1227C8.52087 19.8658 8.52858 19.5865 8.45145 19.3249C8.37432 19.0633 8.21631 18.8329 8.0001 18.6667L3.17344 14.324C2.18677 13.56 2.7361 12 3.98677 12H10.7694C11.0365 12.0009 11.2975 11.9207 11.518 11.77C11.7385 11.6193 11.908 11.4052 12.0041 11.156L14.7641 3.51069H14.7654Z" stroke="#242424" stroke-width="2" stroke-linecap="round" stroke-linejoin="round"/>
</svg>
