<svg width="32" height="32" viewBox="0 0 32 32" fill="none" xmlns="http://www.w3.org/2000/svg">
<path d="M23.0714 10.5962C23.1552 10.6798 23.2217 10.7791 23.2671 10.8885C23.3125 10.9978 23.3358 11.115 23.3358 11.2334C23.3358 11.3518 23.3125 11.469 23.2671 11.5784C23.2217 11.6877 23.1552 11.787 23.0714 11.8706L19.9214 15.0207C19.7574 15.1845 19.5366 15.2787 19.3049 15.2837C19.0732 15.2887 18.8485 15.2042 18.6775 15.0477L17.3275 13.8147C17.1603 13.6516 17.0631 13.4299 17.0563 13.1964C17.0496 12.9629 17.1339 12.7359 17.2914 12.5635C17.4489 12.391 17.6673 12.2865 17.9005 12.2721C18.1336 12.2577 18.3632 12.3345 18.5407 12.4862L19.2554 13.1379L21.797 10.5962C21.8806 10.5124 21.9799 10.4459 22.0892 10.4005C22.1986 10.3552 22.3158 10.3318 22.4342 10.3318C22.5526 10.3318 22.6698 10.3552 22.7791 10.4005C22.8885 10.4459 22.9878 10.5124 23.0714 10.5962ZM23.0714 20.8707C23.2404 20.702 23.3354 20.473 23.3356 20.2342C23.3358 19.9953 23.2411 19.7662 23.0723 19.5972C22.9035 19.4282 22.6746 19.3332 22.4357 19.333C22.1969 19.3329 21.9678 19.4276 21.7988 19.5963L19.2554 22.138L18.5407 21.4864C18.3632 21.3346 18.1336 21.2578 17.9005 21.2722C17.6673 21.2866 17.4489 21.3911 17.2914 21.5636C17.1339 21.736 17.0496 21.963 17.0563 22.1965C17.0631 22.43 17.1603 22.6517 17.3275 22.8148L18.6775 24.0478C18.8484 24.2038 19.0727 24.288 19.304 24.2829C19.5352 24.2779 19.7557 24.184 19.9196 24.0208L23.0696 20.8707H23.0714ZM9.83404 12.1334C9.59534 12.1334 9.36642 12.2283 9.19763 12.397C9.02885 12.5658 8.93403 12.7948 8.93403 13.0335C8.93403 13.2722 9.02885 13.5011 9.19763 13.6699C9.36642 13.8386 9.59534 13.9335 9.83404 13.9335H14.3341C14.5728 13.9335 14.8017 13.8386 14.9705 13.6699C15.1393 13.5011 15.2341 13.2722 15.2341 13.0335C15.2341 12.7948 15.1393 12.5658 14.9705 12.397C14.8017 12.2283 14.5728 12.1334 14.3341 12.1334H9.83404ZM8.93403 22.0336C8.93403 21.7949 9.02885 21.5659 9.19763 21.3972C9.36642 21.2284 9.59534 21.1336 9.83404 21.1336H14.3341C14.5728 21.1336 14.8017 21.2284 14.9705 21.3972C15.1393 21.5659 15.2341 21.7949 15.2341 22.0336C15.2341 22.2723 15.1393 22.5012 14.9705 22.67C14.8017 22.8388 14.5728 22.9336 14.3341 22.9336H9.83404C9.59534 22.9336 9.36642 22.8388 9.19763 22.67C9.02885 22.5012 8.93403 22.2723 8.93403 22.0336ZM10.8871 3.13334C11.0732 2.60669 11.4182 2.15075 11.8744 1.82837C12.3306 1.50599 12.8755 1.33302 13.4341 1.33331H18.8341C19.3927 1.33302 19.9377 1.50599 20.3938 1.82837C20.85 2.15075 21.195 2.60669 21.3812 3.13334H24.2342C24.9503 3.13334 25.6371 3.4178 26.1434 3.92416C26.6498 4.43051 26.9342 5.11727 26.9342 5.83337V27.4336C26.9342 28.1497 26.6498 28.8365 26.1434 29.3428C25.6371 29.8492 24.9503 30.1337 24.2342 30.1337H8.03402C7.31792 30.1337 6.63116 29.8492 6.12481 29.3428C5.61845 28.8365 5.33398 28.1497 5.33398 27.4336V5.83337C5.33398 5.11727 5.61845 4.43051 6.12481 3.92416C6.63116 3.4178 7.31792 3.13334 8.03402 3.13334H10.8871ZM13.4341 3.13334C13.1954 3.13334 12.9665 3.22816 12.7977 3.39694C12.6289 3.56573 12.5341 3.79465 12.5341 4.03335C12.5341 4.27204 12.6289 4.50096 12.7977 4.66975C12.9665 4.83853 13.1954 4.93336 13.4341 4.93336H18.8341C19.0728 4.93336 19.3018 4.83853 19.4706 4.66975C19.6393 4.50096 19.7342 4.27204 19.7342 4.03335C19.7342 3.79465 19.6393 3.56573 19.4706 3.39694C19.3018 3.22816 19.0728 3.13334 18.8341 3.13334H13.4341ZM10.8871 4.93336H8.03402C7.79532 4.93336 7.5664 5.02818 7.39761 5.19696C7.22883 5.36575 7.13401 5.59467 7.13401 5.83337V27.4336C7.13401 27.6723 7.22883 27.9012 7.39761 28.07C7.5664 28.2388 7.79532 28.3336 8.03402 28.3336H24.2342C24.4729 28.3336 24.7018 28.2388 24.8706 28.07C25.0394 27.9012 25.1342 27.6723 25.1342 27.4336V5.83337C25.1342 5.59467 25.0394 5.36575 24.8706 5.19696C24.7018 5.02818 24.4729 4.93336 24.2342 4.93336H21.3812C21.195 5.46 20.85 5.91594 20.3938 6.23832C19.9377 6.56071 19.3927 6.73367 18.8341 6.73338H13.4341C12.8755 6.73367 12.3306 6.56071 11.8744 6.23832C11.4182 5.91594 11.0732 5.46 10.8871 4.93336Z" fill="#242424"/>
</svg>
