<svg width="88" height="17" viewBox="0 0 88 17" fill="none" xmlns="http://www.w3.org/2000/svg">
<path d="M7.38174 2.25533C7.59507 1.69266 8.40241 1.69266 8.61641 2.25533L9.99641 6.07799C10.0446 6.20252 10.1293 6.30952 10.2395 6.38486C10.3498 6.4602 10.4802 6.50035 10.6137 6.5H14.0051C14.6317 6.5 14.9051 7.27999 14.4124 7.66199L11.9991 9.83333C11.891 9.91643 11.812 10.0316 11.7734 10.1624C11.7348 10.2932 11.7387 10.4329 11.7844 10.5613L12.6657 14.2967C12.8804 14.8967 12.1857 15.412 11.6604 15.0427L8.38241 12.9627C8.27015 12.8838 8.13628 12.8414 7.99907 12.8414C7.86187 12.8414 7.728 12.8838 7.61574 12.9627L4.33774 15.0427C3.81307 15.412 3.11774 14.896 3.33241 14.2967L4.21374 10.5613C4.25946 10.4329 4.26331 10.2932 4.22475 10.1624C4.18618 10.0316 4.10718 9.91643 3.99907 9.83333L1.58574 7.66199C1.09241 7.27999 1.36707 6.5 1.99241 6.5H5.38374C5.51727 6.50044 5.64779 6.46033 5.75802 6.38498C5.86825 6.30962 5.95301 6.20257 6.00107 6.07799L7.38107 2.25533H7.38174Z" fill="#FFA200" stroke="#FFA200" stroke-linecap="round" stroke-linejoin="round"/>
<path d="M25.3817 2.25533C25.5951 1.69266 26.4024 1.69266 26.6164 2.25533L27.9964 6.07799C28.0446 6.20252 28.1293 6.30952 28.2395 6.38486C28.3498 6.4602 28.4802 6.50035 28.6137 6.5H32.0051C32.6317 6.5 32.9051 7.27999 32.4124 7.66199L29.9991 9.83333C29.891 9.91643 29.812 10.0316 29.7734 10.1624C29.7348 10.2932 29.7387 10.4329 29.7844 10.5613L30.6657 14.2967C30.8804 14.8967 30.1857 15.412 29.6604 15.0427L26.3824 12.9627C26.2702 12.8838 26.1363 12.8414 25.9991 12.8414C25.8619 12.8414 25.728 12.8838 25.6157 12.9627L22.3377 15.0427C21.8131 15.412 21.1177 14.896 21.3324 14.2967L22.2137 10.5613C22.2595 10.4329 22.2633 10.2932 22.2247 10.1624C22.1862 10.0316 22.1072 9.91643 21.9991 9.83333L19.5857 7.66199C19.0924 7.27999 19.3671 6.5 19.9924 6.5H23.3837C23.5173 6.50044 23.6478 6.46033 23.758 6.38498C23.8683 6.30962 23.953 6.20257 24.0011 6.07799L25.3811 2.25533H25.3817Z" fill="#FFA200" stroke="#FFA200" stroke-linecap="round" stroke-linejoin="round"/>
<path d="M43.3817 2.25533C43.5951 1.69266 44.4024 1.69266 44.6164 2.25533L45.9964 6.07799C46.0446 6.20252 46.1293 6.30952 46.2395 6.38486C46.3498 6.4602 46.4802 6.50035 46.6137 6.5H50.0051C50.6317 6.5 50.9051 7.27999 50.4124 7.66199L47.9991 9.83333C47.891 9.91643 47.812 10.0316 47.7734 10.1624C47.7348 10.2932 47.7387 10.4329 47.7844 10.5613L48.6657 14.2967C48.8804 14.8967 48.1857 15.412 47.6604 15.0427L44.3824 12.9627C44.2702 12.8838 44.1363 12.8414 43.9991 12.8414C43.8619 12.8414 43.728 12.8838 43.6157 12.9627L40.3377 15.0427C39.8131 15.412 39.1177 14.896 39.3324 14.2967L40.2137 10.5613C40.2595 10.4329 40.2633 10.2932 40.2247 10.1624C40.1862 10.0316 40.1072 9.91643 39.9991 9.83333L37.5857 7.66199C37.0924 7.27999 37.3671 6.5 37.9924 6.5H41.3837C41.5173 6.50044 41.6478 6.46033 41.758 6.38498C41.8683 6.30962 41.953 6.20257 42.0011 6.07799L43.3811 2.25533H43.3817Z" fill="#FFA200" stroke="#FFA200" stroke-linecap="round" stroke-linejoin="round"/>
<path d="M61.3817 2.25533C61.5951 1.69266 62.4024 1.69266 62.6164 2.25533L63.9964 6.07799C64.0446 6.20252 64.1293 6.30952 64.2395 6.38486C64.3498 6.4602 64.4802 6.50035 64.6137 6.5H68.0051C68.6317 6.5 68.9051 7.27999 68.4124 7.66199L65.9991 9.83333C65.891 9.91643 65.812 10.0316 65.7734 10.1624C65.7348 10.2932 65.7387 10.4329 65.7844 10.5613L66.6657 14.2967C66.8804 14.8967 66.1857 15.412 65.6604 15.0427L62.3824 12.9627C62.2702 12.8838 62.1363 12.8414 61.9991 12.8414C61.8619 12.8414 61.728 12.8838 61.6157 12.9627L58.3377 15.0427C57.8131 15.412 57.1177 14.896 57.3324 14.2967L58.2137 10.5613C58.2595 10.4329 58.2633 10.2932 58.2247 10.1624C58.1862 10.0316 58.1072 9.91643 57.9991 9.83333L55.5857 7.66199C55.0924 7.27999 55.3671 6.5 55.9924 6.5H59.3837C59.5173 6.50044 59.6478 6.46033 59.758 6.38498C59.8683 6.30962 59.953 6.20257 60.0011 6.07799L61.3811 2.25533H61.3817Z" fill="#FFA200" stroke="#FFA200" stroke-linecap="round" stroke-linejoin="round"/>
<path d="M79.3817 2.25533C79.5951 1.69266 80.4024 1.69266 80.6164 2.25533L81.9964 6.07799C82.0446 6.20252 82.1293 6.30952 82.2395 6.38486C82.3498 6.4602 82.4802 6.50035 82.6137 6.5H86.0051C86.6317 6.5 86.9051 7.28 86.4124 7.662L83.9991 9.83333C83.891 9.91643 83.812 10.0316 83.7734 10.1624C83.7348 10.2932 83.7387 10.4329 83.7844 10.5613L84.6657 14.2967C84.8804 14.8967 84.1857 15.412 83.6604 15.0427L80.3824 12.9627C80.2701 12.8838 80.1363 12.8414 79.9991 12.8414C79.8619 12.8414 79.728 12.8838 79.6157 12.9627L76.3377 15.0427C75.8131 15.412 75.1177 14.896 75.3324 14.2967L76.2137 10.5613C76.2595 10.4329 76.2633 10.2932 76.2247 10.1624C76.1862 10.0316 76.1072 9.91643 75.9991 9.83333L73.5857 7.662C73.0924 7.28 73.3671 6.5 73.9924 6.5H77.3837C77.5173 6.50044 77.6478 6.46033 77.758 6.38498C77.8683 6.30962 77.953 6.20257 78.0011 6.07799L79.3811 2.25533H79.3817Z" stroke="#FFA200" stroke-width="1.5" stroke-linecap="round" stroke-linejoin="round"/>
</svg>
