<svg width="15" height="18" viewBox="0 0 15 18" fill="none" xmlns="http://www.w3.org/2000/svg">
<g clip-path="url(#clip0_844_1730)">
<path d="M2.41604 0.426769C2.80253 0.381001 3.20346 0.464704 3.53731 0.66298C3.87955 0.86356 4.1502 1.18071 4.29181 1.54854C4.44228 1.93373 4.44896 2.37129 4.31107 2.76093C4.17411 3.1538 3.89104 3.49414 3.5283 3.70378C3.18436 3.90575 2.76992 3.9853 2.37427 3.9294C1.95004 3.87226 1.55097 3.65556 1.2724 3.33426C1.00796 3.03339 0.852528 2.64144 0.839795 2.2429C0.823335 1.82469 0.964484 1.40279 1.23048 1.0772C1.51914 0.71781 1.9547 0.477605 2.41604 0.426769Z" fill="#FF8A00"/>
<path d="M0.908447 4.70703C2.05239 4.70703 3.19618 4.70703 4.34012 4.70703C4.33919 4.84848 4.34432 4.99009 4.33174 5.13108C3.50379 5.4966 2.74168 6.01833 2.12894 6.6815C1.63329 7.21782 1.24075 7.85212 1.01388 8.54478C0.978789 8.54877 0.94354 8.55338 0.908447 8.55829C0.908447 7.27449 0.908447 5.99084 0.908447 4.70703Z" fill="#FF8A00"/>
<path d="M6.72675 4.86172C7.10672 4.81657 7.49057 4.79538 7.87287 4.82271C9.2238 4.90672 10.5564 5.37178 11.6358 6.185C11.7165 6.24858 11.8025 6.30556 11.8836 6.36899C12.3559 6.73068 12.7606 7.18038 13.0609 7.69166C13.1459 7.84232 13.241 7.987 13.3218 8.13997C13.6743 8.7887 13.9089 9.50087 14.0047 10.2315C14.0294 10.4046 14.0351 10.5793 14.0469 10.7537C14.1743 12.8974 14.0642 15.0445 14.0915 17.19C13.0176 17.19 11.9437 17.19 10.8696 17.19C10.8696 16.3184 10.8696 15.447 10.8696 14.5754C10.871 13.649 10.8667 12.7221 10.8721 11.796C10.857 11.0144 10.5988 10.2477 10.184 9.58611C9.70362 8.83939 8.90346 8.2808 8.0106 8.1541C7.31526 8.06179 6.57303 8.15041 5.96542 8.51486C5.48685 8.77903 5.0915 9.17635 4.80206 9.63418C4.42427 10.2319 4.20905 10.9241 4.14663 11.6245C4.14523 13.4796 4.14647 15.3349 4.14601 17.19C3.07194 17.19 1.99803 17.19 0.924112 17.19C0.93141 16.7947 0.926442 16.3991 0.927839 16.0038C0.91728 14.7547 0.897715 13.5053 0.913553 12.2562C0.923957 11.6963 0.941038 11.1364 0.97582 10.5773C1.04508 9.56154 1.39352 8.57169 1.94399 7.71377C2.29057 7.08608 2.82365 6.58079 3.40408 6.16411C3.74554 5.91807 4.10455 5.69445 4.48514 5.51215C5.18824 5.17242 5.95051 4.95572 6.72675 4.86172Z" fill="white"/>
</g>
<defs>
<clipPath id="clip0_844_1730">
<rect width="15" height="18" fill="white"/>
</clipPath>
</defs>
</svg>
