<svg width="70" height="82" viewBox="0 0 70 82" fill="none" xmlns="http://www.w3.org/2000/svg">
<path fill-rule="evenodd" clip-rule="evenodd" d="M41.6125 1.49306C42.5798 0.949818 43.5434 0.362934 44.6145 0.0541711C45.4192 -0.153468 46.3264 0.250166 46.6595 1.01895C47.9344 5.15372 49.2633 9.27318 50.5817 13.3939C51.0724 15.2314 51.74 17.0163 52.2628 18.8447C52.7317 20.3938 53.1661 21.9557 53.521 23.5356C52.1385 21.1677 49.7219 19.5724 47.1503 18.7524C43.8522 17.6953 40.2927 17.703 36.9228 18.4051C34.4588 18.9061 32.0628 19.6955 29.7231 20.6077C25.9957 22.1889 22.4247 24.5722 20.2811 28.0881C19.1958 29.9152 18.4386 31.9615 18.2617 34.0898C17.9607 37.402 18.7511 40.6949 19.8211 43.8073C24.1929 42.9744 28.2765 41.0922 32.6061 40.0901C32.246 37.7902 31.2261 35.5235 31.6374 33.157C31.804 32.0755 32.4139 31.1158 33.2621 30.4379C34.8984 29.0618 37.106 28.4981 39.2164 28.625C40.8322 28.6839 42.2685 29.7692 43.0527 31.1402C43.7907 32.3574 43.947 33.8501 43.6601 35.2301C43.2282 37.3674 41.8803 39.147 40.6219 40.8704C37.4712 44.9809 34.2769 49.0569 31.13 53.1698C29.7141 55.0687 28.3751 57.0625 27.5346 59.2906C26.8157 61.1268 26.5685 63.127 26.7427 65.0874C26.9888 68.1677 28.0459 71.0941 28.9376 74.0296C40.5605 70.2921 52.2179 66.6647 63.8458 62.9451C64.5967 62.7285 65.3604 62.5567 66.1035 62.3145C67.0619 65.286 67.9922 68.2663 68.9417 71.2416C69.3056 72.4767 69.7951 73.6824 70 74.9586C69.9974 75.4532 69.6605 75.8914 69.2749 76.1747C68.7726 76.5282 68.16 76.6846 67.5642 76.7858C52.1589 78.3708 36.7524 79.9276 21.3523 81.542C20.472 81.624 19.5878 81.7829 18.7025 81.6983C18.0901 81.6394 17.4929 81.264 17.2546 80.6848C16.3475 77.8697 15.4147 75.0637 14.5229 72.2448C14.2615 71.4427 14.0384 70.6291 13.7207 69.8474C11.1235 61.647 8.51859 53.4492 5.92003 45.25C5.72146 44.3762 5.40375 43.5357 5.14745 42.6784C3.96351 38.9524 2.78337 35.2249 1.59955 31.4989C1.03952 30.0485 0.671796 28.5289 0.119602 27.0745C-0.126403 26.1789 -0.0328798 25.0488 0.779415 24.4658C14.3704 16.7766 28.0138 9.1707 41.6125 1.49306ZM54.4589 42.0249C55.9529 39.6289 56.8051 36.8818 57.1856 34.0949C58.7372 39.7327 60.6823 45.25 62.3749 50.8442C55.4264 53.2121 48.4111 55.3814 41.3869 57.5148C45.8997 52.4933 50.9404 47.8473 54.4589 42.0249Z" fill="#A4BC0C"/>
</svg>
