<svg width="250" height="91" viewBox="0 0 250 91" fill="none" xmlns="http://www.w3.org/2000/svg">
<path fill-rule="evenodd" clip-rule="evenodd" d="M46.1266 2.14429C47.1989 1.54602 48.267 0.899695 49.4543 0.559658C50.3463 0.330987 51.3519 0.775505 51.7212 1.62216C53.1344 6.17573 54.6074 10.7124 56.0688 15.2505C56.6128 17.2741 57.3528 19.2398 57.9322 21.2535C58.4521 22.9594 58.9336 24.6796 59.327 26.4195C57.7945 23.8118 55.1158 22.0549 52.2652 21.1518C48.6094 19.9877 44.6637 19.9962 40.9282 20.7694C38.1969 21.3211 35.5409 22.1904 32.9474 23.195C28.8158 24.9364 24.8573 27.5611 22.4812 31.4331C21.2782 33.4452 20.4388 35.6989 20.2428 38.0427C19.9091 41.6904 20.7853 45.3168 21.9713 48.7445C26.8174 47.8272 31.3439 45.7543 36.1433 44.6508C35.7441 42.1179 34.6135 39.6217 35.0695 37.0154C35.2541 35.8244 35.9302 34.7675 36.8704 34.021C38.6842 32.5055 41.1313 31.8846 43.4706 32.0244C45.2617 32.0893 46.8538 33.2845 47.7231 34.7943C48.5412 36.1349 48.7144 37.7788 48.3963 39.2985C47.9176 41.6523 46.4235 43.6122 45.0286 45.5101C41.5361 50.037 37.9953 54.5258 34.507 59.0553C32.9375 61.1466 31.4533 63.3423 30.5216 65.7961C29.7247 67.8183 29.4507 70.021 29.6438 72.18C29.9166 75.5723 31.0883 78.7952 32.0768 82.028C44.9606 77.9119 57.8825 73.9171 70.7719 69.8207C71.6042 69.5822 72.4507 69.3931 73.2745 69.1263C74.3368 72.3987 75.3681 75.681 76.4205 78.9576C76.8239 80.3178 77.3665 81.6456 77.5936 83.0511C77.5908 83.5958 77.2173 84.0784 76.7898 84.3903C76.233 84.7796 75.5541 84.9519 74.8936 85.0634C57.8172 86.8089 40.7393 88.5234 23.6686 90.3014C22.6928 90.3917 21.7127 90.5666 20.7313 90.4735C20.0525 90.4085 19.3906 89.9952 19.1264 89.3572C18.1209 86.2571 17.0869 83.1668 16.0983 80.0624C15.8086 79.1791 15.5613 78.283 15.2092 77.4222C12.3302 68.3912 9.44269 59.363 6.56223 50.3333C6.34212 49.371 5.98995 48.4453 5.70584 47.5012C4.39347 43.3978 3.08531 39.2928 1.77308 35.1894C1.15228 33.5921 0.744673 31.9185 0.132577 30.3169C-0.140115 29.3305 -0.0364466 28.0859 0.863966 27.4439C15.9293 18.9759 31.0527 10.5996 46.1266 2.14429ZM60.3666 46.7816C62.0228 44.1428 62.9673 41.1175 63.3891 38.0484C65.1091 44.2572 67.2652 50.3333 69.1414 56.4942C61.4391 59.1019 53.6628 61.4909 45.8766 63.8404C50.8789 58.3103 56.4665 53.1937 60.3666 46.7816Z" fill="#A4BC0C"/>
<path fill-rule="evenodd" clip-rule="evenodd" d="M204.719 4.07861C208.909 4.13517 213.099 4.10696 217.289 4.0998C217.265 15.2207 217.243 26.3417 217.287 37.4624C222.473 31.9691 227.776 26.5885 233.07 21.1982C238.048 21.1783 243.026 21.1982 248.004 21.215C242.298 26.8566 236.389 32.2922 230.706 37.9577C237.335 47.3331 243.567 56.9781 250 66.4873C244.965 66.5015 239.93 66.4197 234.898 66.5424C230.366 59.9681 226.455 53.0016 222.114 46.3058C220.392 47.8185 218.647 49.334 217.26 51.1685C217.249 56.2781 217.296 61.3877 217.225 66.4973C213.059 66.4676 208.892 66.479 204.726 66.4873C204.71 54.9658 204.693 43.4456 204.734 31.9253C201.753 31.6078 198.648 31.2862 195.741 32.2203C193.467 32.9414 191.5 34.5189 190.26 36.541C188.759 38.9681 188.125 41.8454 188.083 44.6718C188.036 51.9432 188.097 59.216 188.036 66.4873C183.917 66.503 179.798 66.4084 175.681 66.5411C175.475 62.4065 175.594 58.2607 175.287 54.1305C172.817 60.1967 167.376 65.0763 160.919 66.558C155.284 67.8632 149.206 67.907 143.745 65.8412C141.352 64.9211 139.072 63.6511 137.172 61.9253C132.504 57.7301 129.912 51.4563 129.959 45.2335C129.939 42.7344 130.164 40.2311 129.962 37.7349C127.6 47.4997 124.188 56.9654 121.062 66.5044C116.848 66.4563 112.636 66.4705 108.422 66.4959C105.563 56.422 102.753 46.3284 100.341 36.1375C98.9666 39.3759 98.3345 42.8515 97.461 46.2409C95.6885 52.9817 94.0224 59.7494 92.2371 66.486C87.9434 66.4663 83.6499 66.479 79.3563 66.4945C74.3909 51.4338 69.6144 36.3125 64.7569 21.2179C69.1868 21.1812 73.6182 21.2334 78.0481 21.1812C80.7312 31.4428 84.0192 41.5533 86.1809 51.9446C87.2092 49.6135 87.7006 47.1031 88.3512 44.6534C90.3793 36.836 92.0724 28.9338 94.2753 21.1615C98.3445 21.2109 102.414 21.1967 106.484 21.1995C108.799 31.4145 111.876 41.4488 113.944 51.7202C117.377 41.6972 119.639 31.3341 122.691 21.1982C126.986 21.1868 131.282 21.2109 135.578 21.1826C134.558 24.9729 133.166 28.6474 131.963 32.3812C133.886 29.0439 136.356 25.9295 139.579 23.7451C141.391 22.4992 143.462 21.6836 145.564 21.0556C151.193 19.4102 157.37 19.5034 162.879 21.5579C165.112 22.3863 167.208 23.5645 169.105 24.9954C171.799 27.1135 173.721 30.0514 175.103 33.1431C175.255 32.1455 175.453 31.145 175.406 30.1304C175.429 27.177 175.381 24.225 175.296 21.273C179.325 21.1276 183.357 21.2052 187.39 21.2277C187.415 23.9484 187.36 26.6704 187.482 29.3896C189.401 25.289 193.112 22.0857 197.436 20.7014C199.786 19.9381 202.324 19.7404 204.762 20.1694C204.674 14.8059 204.716 9.44226 204.719 4.07861ZM152.997 29.2979C151.524 29.5138 149.998 29.6817 148.658 30.3746C147.148 31.1959 145.851 32.3939 144.911 33.8261C143.59 35.8312 142.887 38.1934 142.661 40.5669C142.38 44.1059 142.383 47.7706 143.6 51.1544C144.358 53.1962 145.55 55.1761 147.385 56.4305C151.513 59.2922 157.715 58.6996 161.164 55.0364C162.307 53.8369 162.969 52.2875 163.493 50.7424C164.835 46.6981 164.848 42.2856 163.859 38.1624C163.526 36.8613 163.183 35.5391 162.49 34.3736C161.247 32.233 159.155 30.6412 156.817 29.8411C155.593 29.456 154.286 29.1228 152.997 29.2979Z" fill="white"/>
</svg>
