<svg width="58" height="42" viewBox="0 0 58 42" fill="none" xmlns="http://www.w3.org/2000/svg">
<path d="M2.33334 7.66659C2.33334 6.2521 2.89525 4.89554 3.89544 3.89535C4.89563 2.89515 6.25219 2.33325 7.66668 2.33325H50.3333C51.7478 2.33325 53.1044 2.89515 54.1046 3.89535C55.1048 4.89554 55.6667 6.2521 55.6667 7.66659V34.3333C55.6667 35.7477 55.1048 37.1043 54.1046 38.1045C53.1044 39.1047 51.7478 39.6666 50.3333 39.6666H7.66668C6.25219 39.6666 4.89563 39.1047 3.89544 38.1045C2.89525 37.1043 2.33334 35.7477 2.33334 34.3333V7.66659Z" stroke="#BDBDBD" stroke-width="4" stroke-linecap="round" stroke-linejoin="round"/>
<path d="M29 29C33.4183 29 37 25.4183 37 21C37 16.5817 33.4183 13 29 13C24.5817 13 21 16.5817 21 21C21 25.4183 24.5817 29 29 29Z" stroke="#BDBDBD" stroke-width="4" stroke-linecap="round" stroke-linejoin="round"/>
<path d="M2.33334 12.9999C5.16232 12.9999 7.87543 11.8761 9.87582 9.87573C11.8762 7.87534 13 5.16223 13 2.33325M45 39.6666C45 36.8376 46.1238 34.1245 48.1242 32.1241C50.1246 30.1237 52.8377 28.9999 55.6667 28.9999" stroke="#BDBDBD" stroke-width="4" stroke-linecap="round" stroke-linejoin="round"/>
</svg>
