<svg width="20" height="20" viewBox="0 0 20 20" fill="none" xmlns="http://www.w3.org/2000/svg">
<path fill-rule="evenodd" clip-rule="evenodd" d="M2.91731 11.4893V11.3068C2.94409 10.7669 3.11713 10.2437 3.41859 9.79134C3.92038 9.24788 4.26388 8.58192 4.41305 7.86331C4.41305 7.30792 4.41305 6.74459 4.46156 6.18919C4.7122 3.51535 7.35602 1.66667 9.96751 1.66667H10.0322C12.6437 1.66667 15.2875 3.51535 15.5462 6.18919C15.5947 6.74459 15.5462 7.30792 15.5866 7.86331C15.7378 8.58359 16.081 9.25162 16.5811 9.79927C16.8848 10.2477 17.0581 10.7689 17.0824 11.3068V11.4813C17.1004 12.2067 16.8506 12.914 16.379 13.4728C15.7558 14.1262 14.9101 14.5327 14.002 14.6154C11.3391 14.901 8.65249 14.901 5.98965 14.6154C5.08258 14.5292 4.23809 14.1232 3.61263 13.4728C3.14829 12.9136 2.90183 12.2105 2.91731 11.4893Z" stroke="#242424" stroke-width="1.5" stroke-linecap="round" stroke-linejoin="round"/>
<path d="M7.9624 17.3765C8.37846 17.8987 8.98945 18.2367 9.66015 18.3156C10.3308 18.3945 11.0059 18.2079 11.536 17.797C11.699 17.6755 11.8457 17.5342 11.9726 17.3765" stroke="#242424" stroke-width="1.5" stroke-linecap="round" stroke-linejoin="round"/>
</svg>
