<svg width="22" height="22" viewBox="0 0 22 22" fill="none" xmlns="http://www.w3.org/2000/svg">
<path d="M3.5 3.5C3.5 2.70435 3.81607 1.94129 4.37868 1.37868C4.94129 0.816071 5.70435 0.5 6.5 0.5C7.29565 0.5 8.05871 0.816071 8.62132 1.37868C9.18393 1.94129 9.5 2.70435 9.5 3.5C9.5 4.29565 9.18393 5.05871 8.62132 5.62132C8.05871 6.18393 7.29565 6.5 6.5 6.5C5.70435 6.5 4.94129 6.18393 4.37868 5.62132C3.81607 5.05871 3.5 4.29565 3.5 3.5V3.5ZM13.6685 5.876L13.7315 5.924C14.3679 6.39576 15.1651 6.59663 15.9491 6.48277C16.7331 6.36891 17.4403 5.94956 17.9162 5.31625C18.3922 4.68294 18.5983 3.88708 18.4896 3.10235C18.3809 2.31762 17.9663 1.60774 17.3361 1.12762C16.7059 0.647498 15.9115 0.436125 15.126 0.539626C14.3406 0.643127 13.628 1.0531 13.1437 1.68007C12.6595 2.30705 12.4428 3.10012 12.5412 3.88621C12.6395 4.67231 13.0447 5.3876 13.6685 5.876V5.876ZM8.402 8C8.5904 7.64325 8.84883 7.32816 9.16182 7.07359C9.47481 6.81901 9.83593 6.63019 10.2236 6.5184C10.6112 6.40662 11.0174 6.37417 11.4179 6.42301C11.8184 6.47184 12.2049 6.60095 12.5544 6.80262C12.9038 7.00428 13.2089 7.27436 13.4516 7.59668C13.6942 7.91901 13.8694 8.28696 13.9665 8.67854C14.0637 9.07011 14.0808 9.47726 14.017 9.87563C13.9532 10.274 13.8096 10.6554 13.595 10.997C13.1821 11.6542 12.5305 12.1258 11.7772 12.3127C11.0239 12.4996 10.2275 12.3872 9.55524 11.9993C8.88301 11.6113 8.3873 10.9779 8.17225 10.2322C7.9572 9.48641 8.03955 8.68632 8.402 8V8ZM2.75 8H6.755C6.48841 8.76134 6.43045 9.58015 6.58712 10.3714C6.7438 11.1627 7.10941 11.8977 7.646 12.5H7.25C6.47666 12.4999 5.72217 12.7388 5.08983 13.184C4.45748 13.6292 3.97817 14.2589 3.7175 14.987C3.214 14.7847 2.74257 14.5104 2.318 14.1725C1.19 13.265 0.5 11.924 0.5 10.25C0.5 9.65326 0.737053 9.08097 1.15901 8.65901C1.58097 8.23705 2.15326 8 2.75 8V8ZM14.75 12.5C15.5231 12.5 16.2774 12.7389 16.9095 13.1841C17.5416 13.6293 18.0206 14.259 18.281 14.987C18.791 14.7785 19.2635 14.507 19.682 14.1725C20.81 13.265 21.5 11.924 21.5 10.25C21.5 9.65326 21.2629 9.08097 20.841 8.65901C20.419 8.23705 19.8467 8 19.25 8H15.245C15.41 8.4695 15.5 8.975 15.5 9.5C15.5014 10.6072 15.0932 11.6757 14.354 12.5H14.75ZM16.8305 15.392C16.94 15.656 17 15.947 17 16.25C17 17.924 16.3115 19.265 15.182 20.1725C14.0705 21.065 12.5795 21.5 11 21.5C9.4205 21.5 7.9295 21.065 6.818 20.1725C5.69 19.265 5 17.924 5 16.25C4.99921 15.9543 5.05687 15.6614 5.16966 15.388C5.28245 15.1147 5.44815 14.8663 5.65724 14.6572C5.86633 14.4482 6.11469 14.2825 6.38803 14.1697C6.66137 14.0569 6.9543 13.9992 7.25 14H14.75C15.1957 13.9999 15.6313 14.1321 16.0017 14.38C16.3721 14.6278 16.6606 14.98 16.8305 15.392Z" fill="#828282"/>
</svg>
