<svg width="29" height="30" viewBox="0 0 29 30" fill="none" xmlns="http://www.w3.org/2000/svg">
<path d="M12.5736 7.31999L8.06294 2.11332C7.54294 1.51332 6.58961 1.51599 5.98561 2.12132L2.27628 5.83732C1.17228 6.94266 0.856278 8.58399 1.49495 9.89999C5.31044 17.7999 11.6817 24.1801 19.5763 28.0067C20.8909 28.6453 22.5309 28.3293 23.6349 27.224L27.3789 23.4733C27.9856 22.8667 27.9869 21.908 27.3816 21.388L22.1549 16.9013C21.6083 16.432 20.7589 16.4933 20.2109 17.0427L18.3923 18.864C18.2992 18.9616 18.1766 19.0259 18.0434 19.0471C17.9102 19.0683 17.7737 19.0452 17.6549 18.9813C14.6822 17.2695 12.2163 14.8003 10.5083 11.8253C10.4443 11.7063 10.4212 11.5696 10.4423 11.4362C10.4635 11.3028 10.5279 11.18 10.6256 11.0867L12.4389 9.27199C12.9883 8.71999 13.0483 7.86666 12.5736 7.31866V7.31999Z" stroke="#5D9200" stroke-width="2" stroke-linecap="round" stroke-linejoin="round"/>
</svg>
