<svg width="25" height="30" viewBox="0 0 25 30" fill="none" xmlns="http://www.w3.org/2000/svg">
<path fill-rule="evenodd" clip-rule="evenodd" d="M12.3333 0.0908813C19.1339 0.0908813 24.6667 5.66555 24.6667 12.5184C24.6667 20.9424 15.0153 29.2424 12.3333 29.2424C9.65139 29.2424 0 20.9424 0 12.5184C0 5.66555 5.53281 0.0908813 12.3333 0.0908813ZM12.3333 2.33331C6.76913 2.33331 2.24242 6.90337 2.24242 12.5184C2.24242 19.6628 10.65 26.6232 12.3333 26.994C14.0166 26.6217 22.4242 19.6613 22.4242 12.5184C22.4242 6.90337 17.8975 2.33331 12.3333 2.33331ZM12.3348 7.56563C15.0138 7.56563 17.1934 9.74527 17.1934 12.4257C17.1934 15.1047 15.0138 17.2828 12.3348 17.2828C9.65588 17.2828 7.47624 15.1047 7.47624 12.4257C7.47624 9.74527 9.65588 7.56563 12.3348 7.56563ZM12.3348 9.80805C10.8922 9.80805 9.71867 10.9816 9.71867 12.4257C9.71867 13.8683 10.8922 15.0404 12.3348 15.0404C13.7775 15.0404 14.951 13.8683 14.951 12.4257C14.951 10.9816 13.7775 9.80805 12.3348 9.80805Z" fill="#5D9200"/>
</svg>
