<svg width="88" height="17" viewBox="0 0 88 17" fill="none" xmlns="http://www.w3.org/2000/svg">
<path d="M7.38174 2.25531C7.59507 1.69265 8.40241 1.69265 8.61641 2.25531L9.99641 6.07798C10.0446 6.2025 10.1293 6.3095 10.2395 6.38484C10.3498 6.46019 10.4802 6.50033 10.6137 6.49998H14.0051C14.6317 6.49998 14.9051 7.27998 14.4124 7.66198L11.9991 9.83331C11.891 9.91642 11.812 10.0316 11.7734 10.1624C11.7348 10.2932 11.7387 10.4328 11.7844 10.5613L12.6657 14.2966C12.8804 14.8966 12.1857 15.412 11.6604 15.0426L8.38241 12.9626C8.27015 12.8838 8.13628 12.8414 7.99907 12.8414C7.86187 12.8414 7.728 12.8838 7.61574 12.9626L4.33774 15.0426C3.81307 15.412 3.11774 14.896 3.33241 14.2966L4.21374 10.5613C4.25946 10.4328 4.26331 10.2932 4.22475 10.1624C4.18618 10.0316 4.10718 9.91642 3.99907 9.83331L1.58574 7.66198C1.09241 7.27998 1.36707 6.49998 1.99241 6.49998H5.38374C5.51727 6.50042 5.64779 6.46032 5.75802 6.38496C5.86825 6.30961 5.95301 6.20256 6.00107 6.07798L7.38107 2.25531H7.38174Z" fill="#FFA200" stroke="#FFA200" stroke-linecap="round" stroke-linejoin="round"/>
<path d="M25.3817 2.25531C25.5951 1.69265 26.4024 1.69265 26.6164 2.25531L27.9964 6.07798C28.0446 6.2025 28.1293 6.3095 28.2395 6.38484C28.3498 6.46019 28.4802 6.50033 28.6137 6.49998H32.0051C32.6317 6.49998 32.9051 7.27998 32.4124 7.66198L29.9991 9.83331C29.891 9.91642 29.812 10.0316 29.7734 10.1624C29.7348 10.2932 29.7387 10.4328 29.7844 10.5613L30.6657 14.2966C30.8804 14.8966 30.1857 15.412 29.6604 15.0426L26.3824 12.9626C26.2702 12.8838 26.1363 12.8414 25.9991 12.8414C25.8619 12.8414 25.728 12.8838 25.6157 12.9626L22.3377 15.0426C21.8131 15.412 21.1177 14.896 21.3324 14.2966L22.2137 10.5613C22.2595 10.4328 22.2633 10.2932 22.2247 10.1624C22.1862 10.0316 22.1072 9.91642 21.9991 9.83331L19.5857 7.66198C19.0924 7.27998 19.3671 6.49998 19.9924 6.49998H23.3837C23.5173 6.50042 23.6478 6.46032 23.758 6.38496C23.8683 6.30961 23.953 6.20256 24.0011 6.07798L25.3811 2.25531H25.3817Z" fill="#FFA200" stroke="#FFA200" stroke-linecap="round" stroke-linejoin="round"/>
<path d="M43.3817 2.25531C43.5951 1.69265 44.4024 1.69265 44.6164 2.25531L45.9964 6.07798C46.0446 6.2025 46.1293 6.3095 46.2395 6.38484C46.3498 6.46019 46.4802 6.50033 46.6137 6.49998H50.0051C50.6317 6.49998 50.9051 7.27998 50.4124 7.66198L47.9991 9.83331C47.891 9.91642 47.812 10.0316 47.7734 10.1624C47.7348 10.2932 47.7387 10.4328 47.7844 10.5613L48.6657 14.2966C48.8804 14.8966 48.1857 15.412 47.6604 15.0426L44.3824 12.9626C44.2702 12.8838 44.1363 12.8414 43.9991 12.8414C43.8619 12.8414 43.728 12.8838 43.6157 12.9626L40.3377 15.0426C39.8131 15.412 39.1177 14.896 39.3324 14.2966L40.2137 10.5613C40.2595 10.4328 40.2633 10.2932 40.2247 10.1624C40.1862 10.0316 40.1072 9.91642 39.9991 9.83331L37.5857 7.66198C37.0924 7.27998 37.3671 6.49998 37.9924 6.49998H41.3837C41.5173 6.50042 41.6478 6.46032 41.758 6.38496C41.8683 6.30961 41.953 6.20256 42.0011 6.07798L43.3811 2.25531H43.3817Z" fill="#FFA200" stroke="#FFA200" stroke-linecap="round" stroke-linejoin="round"/>
<path d="M61.3817 2.25531C61.5951 1.69265 62.4024 1.69265 62.6164 2.25531L63.9964 6.07798C64.0446 6.2025 64.1293 6.3095 64.2395 6.38484C64.3498 6.46019 64.4802 6.50033 64.6137 6.49998H68.0051C68.6317 6.49998 68.9051 7.27998 68.4124 7.66198L65.9991 9.83331C65.891 9.91642 65.812 10.0316 65.7734 10.1624C65.7348 10.2932 65.7387 10.4328 65.7844 10.5613L66.6657 14.2966C66.8804 14.8966 66.1857 15.412 65.6604 15.0426L62.3824 12.9626C62.2702 12.8838 62.1363 12.8414 61.9991 12.8414C61.8619 12.8414 61.728 12.8838 61.6157 12.9626L58.3377 15.0426C57.8131 15.412 57.1177 14.896 57.3324 14.2966L58.2137 10.5613C58.2595 10.4328 58.2633 10.2932 58.2247 10.1624C58.1862 10.0316 58.1072 9.91642 57.9991 9.83331L55.5857 7.66198C55.0924 7.27998 55.3671 6.49998 55.9924 6.49998H59.3837C59.5173 6.50042 59.6478 6.46032 59.758 6.38496C59.8683 6.30961 59.953 6.20256 60.0011 6.07798L61.3811 2.25531H61.3817Z" fill="#FFA200" stroke="#FFA200" stroke-linecap="round" stroke-linejoin="round"/>
<path d="M79.3817 2.25531C79.5951 1.69265 80.4024 1.69265 80.6164 2.25531L81.9964 6.07798C82.0446 6.2025 82.1293 6.3095 82.2395 6.38484C82.3498 6.46019 82.4802 6.50033 82.6137 6.49998H86.0051C86.6317 6.49998 86.9051 7.27998 86.4124 7.66198L83.9991 9.83331C83.891 9.91642 83.812 10.0316 83.7734 10.1624C83.7348 10.2932 83.7387 10.4328 83.7844 10.5613L84.6657 14.2966C84.8804 14.8966 84.1857 15.412 83.6604 15.0426L80.3824 12.9626C80.2702 12.8838 80.1363 12.8414 79.9991 12.8414C79.8619 12.8414 79.728 12.8838 79.6157 12.9626L76.3377 15.0426C75.8131 15.412 75.1177 14.896 75.3324 14.2966L76.2137 10.5613C76.2595 10.4328 76.2633 10.2932 76.2247 10.1624C76.1862 10.0316 76.1072 9.91642 75.9991 9.83331L73.5857 7.66198C73.0924 7.27998 73.3671 6.49998 73.9924 6.49998H77.3837C77.5173 6.50042 77.6478 6.46032 77.758 6.38496C77.8683 6.30961 77.953 6.20256 78.0011 6.07798L79.3811 2.25531H79.3817Z" fill="#FFA200" stroke="#FFA200" stroke-linecap="round" stroke-linejoin="round"/>
</svg>
