<svg width="13" height="11" viewBox="0 0 13 11" fill="none" xmlns="http://www.w3.org/2000/svg">
<path d="M6.03701 0.8165C6.19701 0.3945 6.80251 0.3945 6.96301 0.8165L7.99801 3.6835C8.03411 3.77689 8.0977 3.85714 8.18036 3.91365C8.26302 3.97015 8.36088 4.00026 8.46101 4H11.0045C11.4745 4 11.6795 4.585 11.31 4.8715L9.50001 6.5C9.41893 6.56233 9.35968 6.64874 9.33075 6.74683C9.30183 6.84492 9.30472 6.94965 9.33901 7.046L10 9.8475C10.161 10.2975 9.64001 10.684 9.24601 10.407L6.78751 8.847C6.70331 8.78783 6.60291 8.75608 6.50001 8.75608C6.3971 8.75608 6.2967 8.78783 6.21251 8.847L3.75401 10.407C3.36051 10.684 2.83901 10.297 3.00001 9.8475L3.66101 7.046C3.6953 6.94965 3.69819 6.84492 3.66926 6.74683C3.64034 6.64874 3.58109 6.56233 3.50001 6.5L1.69001 4.8715C1.32001 4.585 1.52601 4 1.99501 4H4.53851C4.63865 4.00033 4.73654 3.97025 4.81922 3.91374C4.90189 3.85722 4.96546 3.77693 5.00151 3.6835L6.03651 0.8165H6.03701Z" fill="white" stroke="white" stroke-linecap="round" stroke-linejoin="round"/>
</svg>
